<?xml version="1.0" encoding="UTF-8"?>
<svg version="1.1" xmlns="http://www.w3.org/2000/svg" width="2944" height="1086">
<path d="M0 0 C971.52 0 1943.04 0 2944 0 C2944 358.38 2944 716.76 2944 1086 C1972.48 1086 1000.96 1086 0 1086 C0 727.62 0 369.24 0 0 Z " fill="#FEFEFE" transform="translate(0,0)"/>
<path d="M0 0 C0.8712149 -0.00570007 1.74242981 -0.01140015 2.64004517 -0.01727295 C4.47030447 -0.02665333 6.30058014 -0.03322892 8.13085938 -0.03710938 C10.90004397 -0.04682581 13.66848848 -0.07792013 16.4375 -0.109375 C38.14806311 -0.24130064 38.14806311 -0.24130064 44.28881836 4.57568359 C46.67897776 7.68695142 45.9469426 11.5101395 45.5390625 15.203125 C44.58138115 20.45786113 43.34897669 25.63689044 42.1015625 30.828125 C41.73854523 32.37296606 41.37659018 33.91805707 41.015625 35.46337891 C40.25369352 38.71958484 39.48663569 41.9745171 38.71533203 45.22851562 C36.98657414 52.52807297 35.29205339 59.83554938 33.60192871 67.14413452 C33.22562768 68.77136515 32.84891638 70.39850095 32.47180176 72.02554321 C29.65942861 84.16684855 26.96456049 96.32993209 24.3515625 108.515625 C21.22149758 123.11264053 17.93894605 137.66629413 14.5390625 152.203125 C11.88390199 163.56593951 9.25086811 174.93352128 6.65722656 186.31054688 C5.92906537 189.5035819 5.1939266 192.69486751 4.45214844 195.88476562 C-3.91953068 231.45647721 -3.91953068 231.45647721 6.96484375 265.51171875 C15.46541871 277.54236541 28.5085041 281.69402803 42.26953125 284.82421875 C68.66327748 287.88299221 98.72835957 284.20794327 120.4140625 267.703125 C121.79768753 266.54670039 123.17312168 265.38038528 124.5390625 264.203125 C125.20164062 263.68363281 125.86421875 263.16414063 126.546875 262.62890625 C150.8238249 242.96933702 156.07819628 210.68187852 162.09786987 181.95350647 C163.49642336 175.31816057 165.04209954 168.7249645 166.6640625 162.140625 C169.03298901 152.47842057 171.16473708 142.77928664 173.22363281 133.04663086 C175.32663116 123.12658414 177.54320063 113.23491724 179.79052734 103.34667969 C181.39702856 96.27445482 182.98801496 89.1992204 184.55078125 82.1171875 C184.71968369 81.35199799 184.88858612 80.58680847 185.06260681 79.7984314 C185.23184158 79.03173126 185.40107635 78.26503113 185.57543945 77.47509766 C188.42378527 64.57228243 191.29532077 51.68075435 194.46118164 38.85107422 C195.67791113 33.90351206 196.81094414 28.95773904 197.80859375 23.9609375 C198.12050659 22.4457251 198.12050659 22.4457251 198.4387207 20.89990234 C198.82567575 19.00053372 199.19415842 17.09726172 199.53979492 15.18994141 C200.49730483 10.5605815 201.43540774 6.98615467 205.57885742 4.17163086 C215.79951741 -0.87823315 227.20996524 -0.23000637 238.3215332 -0.13305664 C241.23091143 -0.10933955 244.13937677 -0.1125299 247.04882812 -0.11914062 C248.92448455 -0.11356585 250.80013718 -0.10645724 252.67578125 -0.09765625 C253.53225754 -0.09856766 254.38873383 -0.09947906 255.27116394 -0.10041809 C262.02308691 -0.02207243 271.52478491 0.18884741 276.5390625 5.203125 C277.07368836 12.62764748 275.68265567 19.29896432 274.0390625 26.515625 C273.77351563 27.71622559 273.50796875 28.91682617 273.234375 30.15380859 C272.6538183 32.77330437 272.0698697 35.3917827 271.48046875 38.00927734 C270.49724526 42.3796028 269.53312407 46.7540462 268.5703125 51.12890625 C265.41704655 65.43579263 262.20885875 79.72861568 258.89404297 93.99902344 C253.78200971 116.04572975 248.87813398 138.1414715 243.97021484 160.234375 C243.47648486 162.45347395 242.98063878 164.67209145 242.484375 166.890625 C240.98274759 173.61567071 239.50105928 180.3430604 238.09486389 187.08879089 C230.7124922 222.49428158 221.33700635 256.94406963 197.5390625 285.203125 C197.08176758 285.75000977 196.62447266 286.29689453 196.15332031 286.86035156 C185.67215767 299.22797256 173.46302091 309.00965915 159.5390625 317.203125 C158.95431152 317.54972168 158.36956055 317.89631836 157.76708984 318.25341797 C144.61033124 325.94233893 130.23196193 331.24382344 115.5390625 335.203125 C114.50523437 335.51894531 113.47140625 335.83476563 112.40625 336.16015625 C67.22226355 348.96708235 4.30659308 347.4639094 -37.44921875 325.14013672 C-56.10202112 314.60207575 -69.02755164 299.37604354 -76.4609375 279.203125 C-79.49358195 268.21424865 -80.64464495 257.2515109 -80.7109375 245.890625 C-80.7315625 245.04951172 -80.7521875 244.20839844 -80.7734375 243.34179688 C-80.86784889 227.09123562 -76.94293723 210.942302 -73.2734375 195.203125 C-72.8757116 193.47138288 -72.47883848 191.73944471 -72.08276367 190.00732422 C-71.47518034 187.35091977 -70.86703684 184.69465766 -70.25605774 182.03903198 C-68.38425625 173.90155352 -66.57411515 165.75099199 -64.77453613 157.59729004 C-62.18086495 145.85216126 -59.53689688 134.1205089 -56.81518555 122.40429688 C-54.53149152 112.55467815 -52.30446731 102.6925844 -50.0859375 92.828125 C-49.89447144 91.97688049 -49.70300537 91.12563599 -49.5057373 90.24859619 C-47.08129611 79.46444333 -44.67383144 68.67662485 -42.28393555 57.88476562 C-41.6177542 54.87759524 -40.94864776 51.87110163 -40.27661133 48.86523438 C-39.95260257 47.41537221 -39.62862748 45.96550253 -39.3046875 44.515625 C-39.14792038 43.81425415 -38.99115326 43.1128833 -38.82963562 42.39025879 C-37.79138308 37.72972344 -36.79146606 33.06233024 -35.8046875 28.390625 C-35.29443645 26.03642243 -34.78403002 23.68225353 -34.2734375 21.328125 C-34.05985596 20.27641113 -33.84627441 19.22469727 -33.6262207 18.14111328 C-32.31194051 12.17741163 -30.94033371 8.43632539 -26.4609375 4.203125 C-18.95435322 -0.5113761 -8.54267185 0.04449912 0 0 Z " fill="#0B6C00" transform="translate(307.4609375,390.796875)"/>
<path d="M0 0 C16.60823654 -1.67265048 16.60823654 -1.67265048 21.94921875 2.0625 C24.21794623 4.92997603 26.10976038 7.87173153 28 11 C29.42783742 12.81606329 30.88662757 14.60820825 32.375 16.375 C33.11363281 17.27863281 33.85226562 18.18226563 34.61328125 19.11328125 C37.23653189 22.28608358 39.89554041 25.42646335 42.5625 28.5625 C45.76729857 32.33097321 48.92687305 36.12245536 52 40 C56.03950033 45.09508992 60.22950489 50.05415451 64.44921875 55 C65.94490692 56.7590942 67.43123342 58.52637152 68.89453125 60.3125 C72.66453037 64.89376476 74.8756317 66.79104574 80.8125 67.375 C85.764797 67.59964028 89.97388047 64.82232008 93.54125977 61.61376953 C95.03547925 60.07253355 96.46227013 58.49117818 97.875 56.875 C98.39255859 56.29878906 98.91011719 55.72257812 99.44335938 55.12890625 C100.97039048 53.42633264 102.48562391 51.71382548 104 50 C105.49862413 48.33209607 106.99849232 46.66530852 108.5 45 C109.20640625 44.20980469 109.9128125 43.41960937 110.640625 42.60546875 C112.42697752 40.63279138 114.22742861 38.68003863 116.046875 36.73828125 C116.57732422 36.17044922 117.10777344 35.60261719 117.65429688 35.01757812 C118.68337546 33.91796295 119.71569643 32.82136892 120.75195312 31.72851562 C124.20391666 28.0349611 127.1300857 24.16347056 130 20 C128.95199219 18.46279297 128.95199219 18.46279297 127.8828125 16.89453125 C126.96329509 15.53402079 126.04403793 14.1733344 125.125 12.8125 C124.66480469 12.13896484 124.20460938 11.46542969 123.73046875 10.77148438 C121.37990182 7.27970017 119.35855965 4.02102425 118 0 C134.25650224 -1.0735426 134.25650224 -1.0735426 138.53125 1.55859375 C140.125 3.5 140.125 3.5 142 7 C142.969375 6.21625 143.93875 5.4325 144.9375 4.625 C145.48277344 4.18414062 146.02804687 3.74328125 146.58984375 3.2890625 C148.13266437 2.0333609 148.13266437 2.0333609 149 0 C156.26 0 163.52 0 171 0 C169.12135632 3.13107281 167.59575935 5.652923 165.3359375 8.375 C164.85382813 8.96796875 164.37171875 9.5609375 163.875 10.171875 C162.87184927 11.39446496 161.86399295 12.61320846 160.8515625 13.828125 C157.08342434 18.3574086 157.08342434 18.3574086 156 24 C157.30825917 26.18421422 157.30825917 26.18421422 159.375 28.125 C162.50042934 31.40751331 165.46717229 34.72035296 168.3125 38.25 C173.4513217 44.57811723 178.70960952 50.79857551 184 57 C185.06347656 58.25296875 185.06347656 58.25296875 186.1484375 59.53125 C187.06496094 60.59859375 187.06496094 60.59859375 188 61.6875 C188.515625 62.28949219 189.03125 62.89148438 189.5625 63.51171875 C191.51580231 65.53402359 193.24104783 66.87567641 196.05078125 67.3359375 C201.62279584 67.43217264 204.49082887 66.54292018 209 63 C209.99 62.67 210.98 62.34 212 62 C212.69964489 60.68367206 213.36300973 59.34776319 214 58 C215.48046875 56.359375 215.48046875 56.359375 217.1875 54.75 C220.27106987 51.7548932 223.10246852 48.63798653 225.90234375 45.37890625 C227.57604613 43.48079684 229.27386113 41.62333356 231.00390625 39.77734375 C231.53798096 39.2064502 232.07205566 38.63555664 232.62231445 38.04736328 C233.6862199 36.91340316 234.75362908 35.7827175 235.82495117 34.65576172 C236.32099854 34.12611816 236.8170459 33.59647461 237.328125 33.05078125 C237.99183105 32.34949097 237.99183105 32.34949097 238.66894531 31.6340332 C240.36149676 29.5562183 241.66208322 27.31783056 243 25 C242.32626343 24.02389771 242.32626343 24.02389771 241.63891602 23.02807617 C239.60972287 20.08376186 237.58605612 17.13569101 235.5625 14.1875 C234.85544922 13.16333984 234.14839844 12.13917969 233.41992188 11.08398438 C232.74638672 10.10107422 232.07285156 9.11816406 231.37890625 8.10546875 C230.7557251 7.19949951 230.13254395 6.29353027 229.49047852 5.36010742 C228 3 228 3 227 0 C243.29013109 -1.64061341 243.29013109 -1.64061341 247.78320312 1.07958984 C250.85950189 3.9218224 253.02116138 7.33944568 255 11 C258.75659418 9.53283232 259.81095023 7.74378589 261.875 4.375 C264.19147408 1.58002645 265.89898007 0.18236576 269.52050781 -0.41748047 C276.02127732 -0.80471834 282.51186835 -0.48962294 289 0 C286.07891922 4.51564723 282.92028934 8.73910866 279.5625 12.9375 C275.89420582 17.53177135 272.38394888 22.19123054 269 27 C272.945895 32.37250778 277.05171835 37.58236156 281.30078125 42.71875 C283.38604253 45.24053556 285.43624103 47.78860374 287.48046875 50.34375 C288.71606629 51.87506418 289.95174337 53.4063142 291.1875 54.9375 C291.76951172 55.67154053 292.35152344 56.40558105 292.95117188 57.16186523 C297.28154394 62.49785413 300.82218424 66.59646784 307.9375 67.5 C313.00630381 67.58609433 317.25177371 64.60121792 320.85522461 61.30078125 C322.78453174 59.32319721 324.65013388 57.30201644 326.5 55.25 C327.43779297 54.23292969 327.43779297 54.23292969 328.39453125 53.1953125 C332.11171845 49.1471956 335.73755876 45.02338235 339.34765625 40.87988281 C341.76827413 38.12592925 344.25315719 35.43473589 346.75 32.75 C347.79575201 31.62125964 348.84132086 30.49234958 349.88671875 29.36328125 C350.40669434 28.80205566 350.92666992 28.24083008 351.46240234 27.66259766 C353.83708094 25.09486802 356.20044493 22.51683863 358.5625 19.9375 C359.449375 18.96941406 360.33625 18.00132812 361.25 17.00390625 C363.18809646 14.88726405 365.12536319 12.7698642 367.0625 10.65234375 C367.81551392 9.82972046 367.81551392 9.82972046 368.58374023 8.99047852 C369.54719444 7.93794814 370.51026705 6.88506829 371.47290039 5.83178711 C376.79192793 0.02192466 376.79192793 0.02192466 379.15478516 -0.22705078 C380.02409668 -0.21657715 380.8934082 -0.20610352 381.7890625 -0.1953125 C382.73007813 -0.18886719 383.67109375 -0.18242187 384.640625 -0.17578125 C385.62546875 -0.15902344 386.6103125 -0.14226562 387.625 -0.125 C388.61757812 -0.11597656 389.61015625 -0.10695313 390.6328125 -0.09765625 C393.08878134 -0.07404116 395.54427168 -0.04110799 398 0 C395.47321848 4.64973951 392.85274773 8.60350019 389.375 12.625 C385.82081423 16.79234057 382.38210883 21.01830278 379.0625 25.375 C375.59463906 29.92184183 372.09988934 34.44446517 368.5625 38.9375 C367.87510742 39.81148438 367.87510742 39.81148438 367.17382812 40.703125 C364.42971926 44.19002911 361.67948545 47.67199776 358.92089844 51.14746094 C358.01156835 52.3038987 357.11119849 53.46743581 356.21972656 54.63769531 C353.83304858 57.76110806 351.38717439 60.67346049 348.640625 63.48828125 C341.45546031 71.21165663 339.00036454 77.46497189 339.1875 88.0625 C339.32790005 91.66575588 339.52943503 95.25902754 339.76367188 98.85742188 C340.04883843 103.4495484 340.14696836 108.04107824 340.234375 112.640625 C340.26726942 114.3255221 340.30022891 116.01041792 340.33325195 117.6953125 C340.34973785 118.53787598 340.36622375 119.38043945 340.38320923 120.24853516 C340.63195303 131.99584239 341.0171734 143.73761602 341.62475586 155.47192383 C341.91826485 161.40561143 342.10101689 167.33860248 342.25 173.27734375 C342.27098755 174.11274185 342.2919751 174.94813995 342.31359863 175.80885315 C342.41729002 179.99883947 342.51544355 184.18889128 342.60742188 188.37915039 C342.79042903 196.33568944 343.116947 204.23844381 343.73681641 212.17529297 C344.06136666 216.89180897 344.26937955 221.60864362 344.46484375 226.33203125 C344.50305237 227.25316711 344.54126099 228.17430298 344.58062744 229.12335205 C344.65946895 231.03703561 344.73799497 232.95073219 344.81622314 234.86444092 C345.48630335 251.15308906 346.25587408 267.39490702 347.84814453 283.62451172 C348.04754289 286.74371752 348 289.87442733 348 293 C338.1 293 328.2 293 318 293 C317.86722656 288.40964844 317.73445313 283.81929687 317.59765625 279.08984375 C317.51137454 276.1503809 317.42492633 273.21092477 317.33789062 270.27148438 C317.20030514 265.62431251 317.06327646 260.97712972 316.92993164 256.32983398 C316.82217057 252.57553755 316.71160583 248.82133247 316.59924126 245.0671711 C316.55722297 243.64776995 316.51614977 242.22834044 316.4761219 240.80888176 C316.23546147 232.30092931 315.83638482 223.82294445 315.20947266 215.33520508 C314.88958532 210.24198726 314.89122426 205.16351096 314.9375 200.0625 C314.94201172 199.08087891 314.94652344 198.09925781 314.95117188 197.08789062 C314.96269704 194.72523246 314.98061672 192.36260676 315 190 C311.7 190 308.4 190 305 190 C305.02320313 191.44117188 305.04640625 192.88234375 305.0703125 194.3671875 C305.30253933 216.83918352 304.24642718 239.25496351 303.27001953 261.70068359 C302.81877031 272.13264948 302.41317223 282.5664706 302 293 C292.43 293 282.86 293 273 293 C273 284.40834709 273.18548852 276.10064113 273.83984375 267.57421875 C275.45707639 244.89028036 276.36583206 222.16557584 277.39685059 199.44915771 C277.61768692 194.60092956 277.84173855 189.75285227 278.06583118 184.90477371 C279.62693338 151.25894593 279.62693338 151.25894593 280.9055481 117.60153198 C280.99979377 115.00568042 281.11379965 112.41141378 281.23413086 109.81665039 C281.41103828 105.97692993 281.53865864 102.1391781 281.62475586 98.29638672 C281.66732891 96.82306086 281.72951554 95.35019643 281.80932617 93.87841797 C282.37098173 83.1710627 280.91367286 77.08892927 273.71508789 69.03710938 C273.25635284 68.53469727 272.7976178 68.03228516 272.32498169 67.51464844 C270.24121949 65.13260257 268.5078131 62.5403827 266.7421875 59.91796875 C266.09765625 58.96728516 265.453125 58.01660156 264.7890625 57.03710938 C264.15742187 56.09673828 263.52578125 55.15636719 262.875 54.1875 C262.2046875 53.19685547 261.534375 52.20621094 260.84375 51.18554688 C259.22547886 48.79281741 257.61093205 46.39767381 256 44 C252.82923897 47.11217404 250.12145135 50.32882376 247.4375 53.875 C246.67308594 54.88304687 245.90867187 55.89109375 245.12109375 56.9296875 C244.67773682 57.53466064 244.23437988 58.13963379 243.77758789 58.76293945 C242.32609353 60.58961749 240.8437714 62.23189681 239.23608398 63.91479492 C231.9697292 71.81552221 229.63086185 77.75542628 229.93139648 88.46899414 C230.01564024 90.16688557 230.10104536 91.86471971 230.1875 93.5625 C230.23792336 95.38325634 230.2834361 97.20415418 230.32446289 99.02514648 C230.45141852 103.97195854 230.65097747 108.91332386 230.86743164 113.85693359 C231.09566112 119.26803169 231.26972381 124.68098198 231.453125 130.09375 C231.72783492 137.99855318 232.0297291 145.90169075 232.35955811 153.80438232 C232.83344773 165.16722988 233.17807411 176.52291863 233.39135742 187.89337158 C233.72421123 205.34398105 234.50955908 222.75877955 235.4375 240.1875 C235.49912323 241.36510895 235.56074646 242.5427179 235.62423706 243.75601196 C236.30233396 256.59309549 237.11628837 269.39624025 238.36827087 282.19145203 C238.49160545 283.45273674 238.49160545 283.45273674 238.61743164 284.73950195 C238.69127579 285.46957962 238.76511993 286.19965729 238.84120178 286.95185852 C238.99709763 288.96256599 239 290.98325807 239 293 C229.1 293 219.2 293 209 293 C208.14861738 277.23024627 207.56797722 261.45760799 207.07006836 245.67333984 C206.98219748 242.89103337 206.89198702 240.108819 206.79956055 237.32666016 C206.27566341 221.54882609 205.84074898 205.78826418 206 190 C202.7 190 199.4 190 196 190 C196.01087646 191.03471436 196.02175293 192.06942871 196.03295898 193.13549805 C196.11494857 204.70005845 195.73277811 216.21405993 195.2020874 227.76513672 C194.20626034 249.50525642 193.50411406 271.2434983 193 293 C183.43 293 173.86 293 164 293 C164.50355816 274.22529182 165.2201979 255.48026281 166.15625 236.72265625 C166.20974609 235.64928387 166.26324219 234.57591148 166.31835938 233.47001266 C166.76448015 224.54109338 167.21775043 215.61253931 167.67181396 206.684021 C169.54239568 169.89348884 169.54239568 169.89348884 170.79931641 133.07836914 C170.94598241 127.46276984 171.18003757 121.85601706 171.44946289 116.24514771 C173.77672746 88.99692284 173.77672746 88.99692284 162.9909668 65.16748047 C161.6911522 63.80734928 160.36998943 62.4673002 159.02832031 61.1484375 C155.22336418 57.11815175 152.31964096 52.41050073 149.25 47.8125 C148.09596862 46.12640303 146.93514893 44.44491933 145.765625 42.76953125 C145.27868164 42.06417236 144.79173828 41.35881348 144.29003906 40.63208008 C143.07902201 38.86268765 143.07902201 38.86268765 141 38 C140.65195313 38.80050781 140.65195313 38.80050781 140.296875 39.6171875 C138.60738281 42.72137495 136.45591848 45.38035401 134.25 48.125 C133.26765511 49.36022077 132.28591617 50.5959236 131.3046875 51.83203125 C130.77713867 52.49541504 130.24958984 53.15879883 129.70605469 53.84228516 C125.93827953 58.60753943 122.22938231 63.41907563 118.50878906 68.22119141 C117.64979004 69.32793213 117.64979004 69.32793213 116.7734375 70.45703125 C116.26216309 71.11678955 115.75088867 71.77654785 115.22412109 72.45629883 C114 74 114 74 113 75 C112.06355883 90.49368418 112.99677812 106.32789883 113.390625 121.84375 C113.42219885 123.10226367 113.42219885 123.10226367 113.45441055 124.38620186 C114.00001041 145.85418809 114.79119809 167.31306223 115.61962891 188.77172852 C115.790828 193.21362884 115.95736439 197.65566482 116.11962891 202.09790039 C117.0170183 226.63708441 118.10533294 251.12544481 120.04122925 275.60728455 C120.13671366 276.81549645 120.13671366 276.81549645 120.23412704 278.04811668 C120.35264205 279.5317862 120.4733719 281.01528136 120.59686661 282.49854469 C120.88342003 286.02739924 121 289.45012907 121 293 C111.1 293 101.2 293 91 293 C90.86722656 289.03355469 90.73445313 285.06710937 90.59765625 280.98046875 C90.48881195 277.75939097 90.37960719 274.53832585 90.27016449 271.31726837 C90.15583059 267.94941616 90.04228528 264.58154224 89.92993164 261.21362305 C89.32915645 242.850515 89.32915645 242.850515 88.4375 224.5 C88.00622995 216.93235629 87.87873123 209.39367182 87.9375 201.8125 C87.94201172 200.65814453 87.94652344 199.50378906 87.95117188 198.31445312 C87.96267207 195.54290676 87.97890801 192.77148691 88 190 C84.7 190 81.4 190 78 190 C78.01740234 191.10230957 78.03480469 192.20461914 78.05273438 193.34033203 C78.24782624 212.59514842 77.35976552 231.82361918 76.60931396 251.05914307 C76.42528039 255.79972884 76.24607052 260.54049698 76.06640625 265.28125 C75.71555159 274.52101533 75.35906083 283.76054993 75 293 C65.43 293 55.86 293 46 293 C45.91110264 283.01978948 46.20767785 273.20924562 46.9375 263.25 C47.620227 253.46217201 48.18352539 243.68272021 48.5 233.875 C48.87489337 222.29853632 49.48263853 210.74351973 50.13424683 199.18017578 C50.79139471 187.4699541 51.32161662 175.76597592 51.65820312 164.04125977 C51.80566716 159.19864625 52.02210579 154.39703841 52.4921875 149.57421875 C53.43492347 139.88098147 53.58975952 130.14012284 53.81330872 120.40861511 C53.92101078 116.04068418 54.11665685 111.6852146 54.36280823 107.32302856 C55.95807837 86.81428551 55.95807837 86.81428551 47.3828125 68.9128418 C46.22133194 67.63048392 45.04684532 66.35980787 43.86083984 65.10009766 C40.26619698 61.04327295 37.35252776 56.47749933 34.3125 52 C32.95456057 50.04327379 31.59516091 48.08756023 30.234375 46.1328125 C25.07749928 38.68158451 19.98386704 31.18772999 14.90185547 23.68530273 C11.93569759 19.3077324 8.96862795 14.93294447 5.9296875 10.60546875 C5.497771 9.99010254 5.06585449 9.37473633 4.62084961 8.74072266 C3.54202441 7.21073618 2.45689299 5.68520131 1.37109375 4.16015625 C0 2 0 2 0 0 Z " fill="#04104B" transform="translate(1209,443)"/>
<path d="M0 0 C4.7680521 6.7764599 2.36545556 17.34536526 1.16821289 25.09277344 C-0.41336488 34.12849984 -2.99183963 42.59237947 -8.25 50.1875 C-12.16455751 52.67858205 -15.45992237 52.51104099 -20 51.9375 C-23.02753501 50.9100151 -25.75309667 49.45268727 -28.5625 47.9375 C-53.97898809 35.10629774 -84.13092504 27.32577569 -112.15234375 35.90234375 C-124.48769947 40.17725699 -134.74734003 47.2298062 -141.0546875 58.88671875 C-144.79171528 67.09038449 -145.52799125 77.57775262 -143.421875 86.34375 C-142.47625217 88.44131337 -141.39400615 90.10548646 -140 91.9375 C-139.42507813 92.71222656 -138.85015625 93.48695313 -138.2578125 94.28515625 C-127.45262407 107.475641 -111.72013317 114.26917323 -96.85180664 121.8269043 C-80.86913684 129.96593308 -64.85641435 138.43689025 -51 149.9375 C-50.13503906 150.64003906 -49.27007813 151.34257813 -48.37890625 152.06640625 C-34.56271318 163.82173642 -23.58912335 180.5496291 -22 198.9375 C-21.10180967 213.65035667 -21.25198866 227.88726236 -26 241.9375 C-26.21962402 242.59282715 -26.43924805 243.2481543 -26.66552734 243.92333984 C-37.0386749 273.91223423 -60.80088425 294.55483704 -88.453125 308.328125 C-105.32496426 316.42613358 -122.56859278 320.9754227 -141 323.9375 C-141.7827832 324.06882324 -142.56556641 324.20014648 -143.37207031 324.33544922 C-167.30853821 328.18103318 -194.25650031 327.66819728 -218 322.9375 C-219.1437207 322.71271973 -219.1437207 322.71271973 -220.31054688 322.48339844 C-238.67326161 318.75866173 -263.12764382 312.71687191 -276 297.9375 C-280.45167703 284.5824689 -275.56551566 266.15636663 -269.5 253.9375 C-267.48167471 250.04763672 -265.87493274 247.12278184 -262 244.9375 C-253.38041337 244.50652067 -246.47154743 248.96366674 -239.07421875 252.85888672 C-210.28957757 267.82717118 -177.10955713 276.41513009 -145 266.9375 C-143.96617187 266.6590625 -142.93234375 266.380625 -141.8671875 266.09375 C-127.88107936 261.94441868 -116.54559327 254.46569405 -109 241.9375 C-104.45947326 232.51556613 -102.09955827 222.5990019 -105.125 212.3125 C-111.69214097 195.06240622 -129.40230025 186.84581295 -144.78125 178.97265625 C-184.40719864 158.66798675 -184.40719864 158.66798675 -198 145.9375 C-198.92683594 145.10089844 -199.85367187 144.26429688 -200.80859375 143.40234375 C-215.12929905 129.89774377 -224.46906833 111.32857313 -225.28515625 91.52734375 C-225.82089912 68.62148618 -220.979285 48.42875572 -207 29.9375 C-206.2884375 28.99261719 -205.576875 28.04773438 -204.84375 27.07421875 C-182.66826707 -1.15267237 -147.15737438 -15.21195102 -112.47143555 -20.11767578 C-78.44995057 -24.17270746 -27.11299775 -24.59085843 0 0 Z " fill="#EA7F03" transform="translate(1993,406.0625)"/>
<path d="M0 0 C842.16 0 1684.32 0 2552 0 C2552 5.28 2552 10.56 2552 16 C1709.84 16 867.68 16 0 16 C0 10.72 0 5.44 0 0 Z " fill="#0B6C00" transform="translate(229,773)"/>
<path d="M0 0 C3.27967183 3.07887559 5.8774452 6.44875501 8.4375 10.125 C9.32496552 11.38320437 10.2130154 12.64099671 11.1015625 13.8984375 C11.57110352 14.56456055 12.04064453 15.23068359 12.52441406 15.91699219 C15.0952741 19.5461414 17.70501481 23.14712141 20.3125 26.75 C21.42453718 28.28771847 22.5365158 29.82547928 23.6484375 31.36328125 C24.20370117 32.1310791 24.75896484 32.89887695 25.33105469 33.68994141 C26.96518299 35.95180829 28.5963713 38.21576308 30.2265625 40.48046875 C35.77549973 48.1853087 41.35823874 55.8628106 47 63.5 C53.19011119 71.87948458 59.30474309 80.31107363 65.39111328 88.76611328 C68.09012128 92.51359784 70.79538884 96.25655845 73.5 100 C74.58336304 101.49997854 75.66669638 102.99997854 76.75 104.5 C77.28625 105.2425 77.8225 105.985 78.375 106.75 C83.25 113.5 83.25 113.5 84.87475586 115.74975586 C85.95878416 117.2506555 87.04293142 118.75146922 88.12719727 120.25219727 C90.82587655 123.98773967 93.52251312 127.72472254 96.21484375 131.46484375 C101.76804624 139.17462973 107.35437205 146.85757631 113 154.5 C119.19011119 162.87948458 125.30474309 171.31107363 131.39111328 179.76611328 C134.09012128 183.51359784 136.79538884 187.25655845 139.5 191 C140.58336304 192.49997854 141.66669638 193.99997854 142.75 195.5 C143.554375 196.61375 143.554375 196.61375 144.375 197.75 C149.25 204.5 149.25 204.5 150.87475586 206.74975586 C151.95878416 208.2506555 153.04293142 209.75146922 154.12719727 211.25219727 C156.82587655 214.98773967 159.52251312 218.72472254 162.21484375 222.46484375 C167.82903178 230.25915847 173.47885383 238.024536 179.1875 245.75 C184.00286929 252.26722873 188.75864473 258.82113315 193.453125 265.42578125 C198.0326011 271.86498913 202.67868825 278.25656021 207.30908203 284.65917969 C209.00945942 287.01309513 210.70638246 289.36946376 212.40234375 291.7265625 C218.01406348 299.52070799 223.65709253 307.27831321 229.48828125 314.91015625 C231 317 231 317 231 318 C226.82316455 318.02511278 222.64637155 318.04305063 218.46948242 318.05493164 C217.05476107 318.05989558 215.64004467 318.06666892 214.2253418 318.07543945 C209.48181968 318.10406561 204.74312324 318.07369548 200 318 C198.76354736 317.98743164 197.52709473 317.97486328 196.25317383 317.96191406 C187.84323768 317.64659332 187.84323768 317.64659332 184.03515625 314.7265625 C183.38417969 313.70304687 182.73320313 312.67953125 182.0625 311.625 C181.25748938 310.4316307 180.45143573 309.23896457 179.64453125 308.046875 C179.01538818 307.07137695 179.01538818 307.07137695 178.37353516 306.07617188 C175.82689426 302.22678792 173.01083107 298.57202067 170.25 294.875 C169.04522974 293.23818888 167.8421226 291.60015241 166.640625 289.9609375 C163.10061862 285.13554912 159.55137766 280.3170229 156 275.5 C152.47421968 270.71656309 148.94961068 265.9322804 145.4296875 261.14453125 C139.98363105 253.73980537 134.52542234 246.34575634 129 239 C122.86971479 230.8501105 116.82289741 222.6397739 110.78222656 214.42333984 C107.27464562 209.65399074 103.7610183 204.88909438 100.24829102 200.12353516 C97.34134427 196.17929 94.43622871 192.23372455 91.53515625 188.28515625 C85.56256696 180.16028254 79.55912726 172.06059382 73.5 164 C66.85529396 155.16039751 60.28145441 146.27059733 53.73388672 137.35888672 C50.82628381 133.40320391 47.91290513 129.45177906 45 125.5 C41.50888521 120.76379551 38.01890198 116.02678478 34.53515625 111.28515625 C27.81210894 102.13954252 21.0383386 93.03456432 14.21679688 83.9621582 C9.75094838 78.017383 5.33624079 72.04025874 1 66 C-2.37779045 67.12593015 -2.85269787 67.79015388 -4.86328125 70.5859375 C-5.68771729 71.71974854 -5.68771729 71.71974854 -6.52880859 72.87646484 C-7.11742676 73.70098145 -7.70604492 74.52549805 -8.3125 75.375 C-9.5819033 77.12509282 -10.85143809 78.87509026 -12.12109375 80.625 C-13.09151611 81.97078125 -13.09151611 81.97078125 -14.08154297 83.34375 C-16.99008297 87.37084534 -19.92964995 91.37478204 -22.875 95.375 C-23.44573242 96.15141846 -24.01646484 96.92783691 -24.60449219 97.7277832 C-29.69065706 104.62630027 -34.89698351 111.43018296 -40.10888672 118.23388672 C-44.32969357 123.76062365 -48.45500102 129.34354795 -52.5 135 C-57.85090968 142.4826135 -63.39005949 149.8066131 -68.98388672 157.10888672 C-75.77543554 165.98563163 -82.39719589 174.98245611 -89 184 C-96.90861203 194.80090443 -104.90052495 205.52646636 -113.03417969 216.15917969 C-119.80375575 225.02277637 -126.41123372 234.00162777 -133 243 C-140.90704171 253.79875983 -148.89609508 264.52322265 -157.02978516 275.15258789 C-162.01980297 281.68454658 -166.92891951 288.27143076 -171.78125 294.90625 C-172.84915483 296.36518059 -173.93750142 297.80929004 -175.04199219 299.24072266 C-176.64242084 301.49608982 -177.96585857 303.69343923 -179.30957031 306.09912109 C-185.7041217 316.85213705 -185.7041217 316.85213705 -191.38806152 318.83169556 C-197.99944906 319.97979611 -204.59386842 319.46349151 -211.25 319 C-213.2666429 318.91960658 -215.28359568 318.84662629 -217.30078125 318.78125 C-222.20826746 318.60619961 -227.1006711 318.33112179 -232 318 C-228.01015773 311.90201133 -223.84868036 305.97155224 -219.5 300.125 C-218.26169399 298.45184124 -217.02341347 296.77866362 -215.78515625 295.10546875 C-214.84373779 293.83582275 -214.84373779 293.83582275 -213.88330078 292.54052734 C-210.8957183 288.51035061 -207.91531845 284.47489495 -204.9375 280.4375 C-204.35806641 279.65197754 -203.77863281 278.86645508 -203.18164062 278.05712891 C-198.71294414 271.98943796 -194.2966486 265.88520272 -189.89428711 259.76928711 C-185.38568587 253.5137479 -180.81319395 247.30681654 -176.23046875 241.10546875 C-172.28584489 235.76142179 -168.38041885 230.39081451 -164.5 225 C-157.15996467 214.80643537 -149.69545394 204.70598373 -142.22949219 194.60449219 C-135.40034581 185.36195339 -128.6079307 176.0961172 -121.89428711 166.76928711 C-117.38568587 160.5137479 -112.81319395 154.30681654 -108.23046875 148.10546875 C-104.28584596 142.76142324 -100.38030944 137.39089219 -96.5 132 C-91.45992181 124.99784758 -86.35786615 118.04386744 -81.23046875 111.10546875 C-77.28584489 105.76142179 -73.38041885 100.39081451 -69.5 95 C-62.15996467 84.80643537 -54.69545394 74.70598373 -47.22949219 64.60449219 C-40.40409009 55.36702088 -33.61547126 46.10621344 -26.90527344 36.78466797 C-22.28513298 30.37468004 -17.60347313 24.01119693 -12.90966797 17.6550293 C-8.5786797 11.78991858 -4.27410019 5.90675337 0 0 Z " fill="#B7C401" transform="translate(1405,119)"/>
<path d="M0 0 C0.71979034 0.00237671 1.43958069 0.00475342 2.18118286 0.00720215 C13.11919259 0.06364699 23.21321473 0.82524797 33.625 4.4375 C34.58535156 4.73785156 35.54570312 5.03820312 36.53515625 5.34765625 C48.87479405 9.64698707 57.88865588 19.24666138 63.58203125 30.75 C66.72777974 38.85589874 66.97786576 46.30730012 66.9375 54.9375 C66.93186035 56.18837402 66.9262207 57.43924805 66.92041016 58.72802734 C66.53975138 87.78246832 55.85441422 114.43679338 35.9375 135.625 C18.02482067 152.9257555 -6.39664043 160.87055009 -30.90014648 160.64331055 C-32.9381158 160.62499447 -34.97562846 160.62280218 -37.01367188 160.62304688 C-56.20610614 160.53849871 -73.46647286 157.80224093 -88.125 144.3125 C-98.54556113 133.39396515 -100.81727663 120.40464353 -100.8125 105.875 C-100.8135675 105.18897705 -100.81463501 104.5029541 -100.81573486 103.79614258 C-100.78751173 91.19176382 -99.21608545 79.47341118 -95.375 67.4375 C-95.15038086 66.73254395 -94.92576172 66.02758789 -94.69433594 65.30126953 C-89.52978852 49.78131589 -80.93489038 36.84573001 -69.375 25.4375 C-68.63507813 24.69886719 -67.89515625 23.96023438 -67.1328125 23.19921875 C-48.72721491 5.83862762 -24.66986663 -0.21559764 0 0 Z " fill="#EA7F04" transform="translate(2096.375,568.5625)"/>
<path d="M0 0 C350.79 0 701.58 0 1063 0 C1063 5.28 1063 10.56 1063 16 C712.21 16 361.42 16 0 16 C0 10.72 0 5.44 0 0 Z " fill="#EA7F03" transform="translate(1718,773)"/>
<path d="M0 0 C16.60823654 -1.67265048 16.60823654 -1.67265048 21.94921875 2.0625 C24.21794623 4.92997603 26.10976038 7.87173153 28 11 C29.42783742 12.81606329 30.88662757 14.60820825 32.375 16.375 C33.11363281 17.27863281 33.85226562 18.18226563 34.61328125 19.11328125 C37.23653189 22.28608358 39.89554041 25.42646335 42.5625 28.5625 C45.76729857 32.33097321 48.92687305 36.12245536 52 40 C56.03950033 45.09508992 60.22950489 50.05415451 64.44921875 55 C65.94490692 56.7590942 67.43123342 58.52637152 68.89453125 60.3125 C72.66453037 64.89376476 74.8756317 66.79104574 80.8125 67.375 C85.764797 67.59964028 89.97388047 64.82232008 93.54125977 61.61376953 C95.03547925 60.07253355 96.46227013 58.49117818 97.875 56.875 C98.39255859 56.29878906 98.91011719 55.72257812 99.44335938 55.12890625 C100.97039048 53.42633264 102.48562391 51.71382548 104 50 C105.49862413 48.33209607 106.99849232 46.66530852 108.5 45 C109.20640625 44.21109375 109.9128125 43.4221875 110.640625 42.609375 C113.97594441 38.92064427 117.35893588 35.27631578 120.75195312 31.640625 C123.17756676 29.02892795 125.50605385 26.39232953 127.734375 23.609375 C128.48203125 22.74828125 129.2296875 21.8871875 130 21 C130.66 21 131.32 21 132 21 C133.23681641 22.46875 133.23681641 22.46875 134.6015625 24.5 C135.09140625 25.221875 135.58125 25.94375 136.0859375 26.6875 C136.59382813 27.450625 137.10171875 28.21375 137.625 29 C138.140625 29.763125 138.65625 30.52625 139.1875 31.3125 C140.46447818 33.20431952 141.73493968 35.10019898 143 37 C142.01 37.495 142.01 37.495 141 38 C140.72671875 38.55429687 140.4534375 39.10859375 140.171875 39.6796875 C138.59147151 42.80888642 136.43548331 45.40577984 134.25 48.125 C133.26765511 49.36022077 132.28591617 50.5959236 131.3046875 51.83203125 C130.77713867 52.49541504 130.24958984 53.15879883 129.70605469 53.84228516 C125.93827953 58.60753943 122.22938231 63.41907563 118.50878906 68.22119141 C117.64979004 69.32793213 117.64979004 69.32793213 116.7734375 70.45703125 C116.26216309 71.11678955 115.75088867 71.77654785 115.22412109 72.45629883 C114 74 114 74 113 75 C112.06355883 90.49368418 112.99677812 106.32789883 113.390625 121.84375 C113.42219885 123.10226367 113.42219885 123.10226367 113.45441055 124.38620186 C114.00001041 145.85418809 114.79119809 167.31306223 115.61962891 188.77172852 C115.790828 193.21362884 115.95736439 197.65566482 116.11962891 202.09790039 C117.0170183 226.63708441 118.10533294 251.12544481 120.04122925 275.60728455 C120.13671366 276.81549645 120.13671366 276.81549645 120.23412704 278.04811668 C120.35264205 279.5317862 120.4733719 281.01528136 120.59686661 282.49854469 C120.88342003 286.02739924 121 289.45012907 121 293 C111.1 293 101.2 293 91 293 C90.86722656 289.03355469 90.73445313 285.06710937 90.59765625 280.98046875 C90.48881195 277.75939097 90.37960719 274.53832585 90.27016449 271.31726837 C90.15583059 267.94941616 90.04228528 264.58154224 89.92993164 261.21362305 C89.32915645 242.850515 89.32915645 242.850515 88.4375 224.5 C88.00622995 216.93235629 87.87873123 209.39367182 87.9375 201.8125 C87.94201172 200.65814453 87.94652344 199.50378906 87.95117188 198.31445312 C87.96267207 195.54290676 87.97890801 192.77148691 88 190 C84.7 190 81.4 190 78 190 C78.01740234 191.10230957 78.03480469 192.20461914 78.05273438 193.34033203 C78.24782624 212.59514842 77.35976552 231.82361918 76.60931396 251.05914307 C76.42528039 255.79972884 76.24607052 260.54049698 76.06640625 265.28125 C75.71555159 274.52101533 75.35906083 283.76054993 75 293 C65.43 293 55.86 293 46 293 C45.91110264 283.01978948 46.20767785 273.20924562 46.9375 263.25 C47.620227 253.46217201 48.18352539 243.68272021 48.5 233.875 C48.87489337 222.29853632 49.48263853 210.74351973 50.13424683 199.18017578 C50.79139471 187.4699541 51.32161662 175.76597592 51.65820312 164.04125977 C51.80566716 159.19864625 52.02210579 154.39703841 52.4921875 149.57421875 C53.43492347 139.88098147 53.58975952 130.14012284 53.81330872 120.40861511 C53.92101078 116.04068418 54.11665685 111.6852146 54.36280823 107.32302856 C55.95807837 86.81428551 55.95807837 86.81428551 47.3828125 68.9128418 C46.22133194 67.63048392 45.04684532 66.35980787 43.86083984 65.10009766 C40.26619698 61.04327295 37.35252776 56.47749933 34.3125 52 C32.95456057 50.04327379 31.59516091 48.08756023 30.234375 46.1328125 C25.07749928 38.68158451 19.98386704 31.18772999 14.90185547 23.68530273 C11.93569759 19.3077324 8.96862795 14.93294447 5.9296875 10.60546875 C5.497771 9.99010254 5.06585449 9.37473633 4.62084961 8.74072266 C3.54202441 7.21073618 2.45689299 5.68520131 1.37109375 4.16015625 C0 2 0 2 0 0 Z " fill="#26528F" transform="translate(1209,443)"/>
<path d="M0 0 C0.86931152 0.01047363 1.73862305 0.02094727 2.63427734 0.03173828 C4.04580078 0.04140625 4.04580078 0.04140625 5.48583984 0.05126953 C6.47068359 0.06802734 7.45552734 0.08478516 8.47021484 0.10205078 C9.46279297 0.11107422 10.45537109 0.12009766 11.47802734 0.12939453 C13.93399618 0.15300962 16.38948653 0.18594279 18.84521484 0.22705078 C16.31843332 4.87679029 13.69796257 8.83055097 10.22021484 12.85205078 C6.66602907 17.01939135 3.22732367 21.24535356 -0.09228516 25.60205078 C-3.56014609 30.14889261 -7.05489582 34.67151595 -10.59228516 39.16455078 C-11.05054688 39.74720703 -11.50880859 40.32986328 -11.98095703 40.93017578 C-14.72506589 44.41707989 -17.47529971 47.89904854 -20.23388672 51.37451172 C-21.14321681 52.53094948 -22.04358667 53.69448659 -22.93505859 54.86474609 C-25.32173658 57.98815884 -27.76761076 60.90051127 -30.51416016 63.71533203 C-37.69932485 71.43870741 -40.15442061 77.69202267 -39.96728516 88.28955078 C-39.82688511 91.89280666 -39.62535012 95.48607832 -39.39111328 99.08447266 C-39.10594673 103.67659918 -39.0078168 108.26812902 -38.92041016 112.86767578 C-38.88751573 114.55257288 -38.85455625 116.2374687 -38.8215332 117.92236328 C-38.79680435 119.1862085 -38.79680435 119.1862085 -38.77157593 120.47558594 C-38.52283212 132.22289317 -38.13761176 143.9646668 -37.5300293 155.69897461 C-37.23652031 161.63266221 -37.05376827 167.56565326 -36.90478516 173.50439453 C-36.88379761 174.33979263 -36.86281006 175.17519073 -36.84118652 176.03590393 C-36.73749513 180.22589025 -36.63934161 184.41594206 -36.54736328 188.60620117 C-36.36435613 196.56274022 -36.03783816 204.46549459 -35.41796875 212.40234375 C-35.0934185 217.11885975 -34.8854056 221.8356944 -34.68994141 226.55908203 C-34.63262848 227.94078583 -34.63262848 227.94078583 -34.57415771 229.35040283 C-34.4953162 231.26408639 -34.41679019 233.17778297 -34.33856201 235.0914917 C-33.66848181 251.38013984 -32.89891108 267.6219578 -31.30664062 283.8515625 C-31.10724227 286.9707683 -31.15478516 290.10147811 -31.15478516 293.22705078 C-41.05478516 293.22705078 -50.95478516 293.22705078 -61.15478516 293.22705078 C-61.28755859 288.63669922 -61.42033203 284.04634766 -61.55712891 279.31689453 C-61.64341062 276.37743168 -61.72985883 273.43797555 -61.81689453 270.49853516 C-61.95448002 265.85136329 -62.09150869 261.2041805 -62.22485352 256.55688477 C-62.33261459 252.80258833 -62.44317932 249.04838325 -62.5555439 245.29422188 C-62.59756218 243.87482073 -62.63863539 242.45539122 -62.67866325 241.03593254 C-62.91932369 232.52798009 -63.31840034 224.04999523 -63.9453125 215.56225586 C-64.26519984 210.46903804 -64.2635609 205.39056174 -64.21728516 200.28955078 C-64.21277344 199.30792969 -64.20826172 198.32630859 -64.20361328 197.31494141 C-64.19208812 194.95228325 -64.17416844 192.58965754 -64.15478516 190.22705078 C-67.45478516 190.22705078 -70.75478516 190.22705078 -74.15478516 190.22705078 C-74.13158203 191.66822266 -74.10837891 193.10939453 -74.08447266 194.59423828 C-73.85224583 217.0662343 -74.90835797 239.48201429 -75.88476562 261.92773438 C-76.33601485 272.35970026 -76.74161293 282.79352139 -77.15478516 293.22705078 C-86.72478516 293.22705078 -96.29478516 293.22705078 -106.15478516 293.22705078 C-106.15478516 284.63539787 -105.96929663 276.32769191 -105.31494141 267.80126953 C-103.69770877 245.11733114 -102.78895309 222.39262662 -101.75793457 199.6762085 C-101.53709824 194.82798034 -101.31304661 189.97990306 -101.08895397 185.13182449 C-99.52785177 151.48599671 -99.52785177 151.48599671 -98.24923706 117.82858276 C-98.15499139 115.2327312 -98.04098551 112.63846456 -97.9206543 110.04370117 C-97.74374687 106.20398071 -97.61612651 102.36622888 -97.5300293 98.5234375 C-97.48745624 97.05011164 -97.42526962 95.57724721 -97.34545898 94.10546875 C-96.78449348 83.41126859 -98.23364907 77.28736246 -105.4309082 69.2421875 C-105.89040863 68.74168884 -106.34990906 68.24119019 -106.82333374 67.7255249 C-110.39472352 63.7061254 -113.33144571 59.12990327 -116.40478516 54.72705078 C-117.09185547 53.77830078 -117.77892578 52.82955078 -118.48681641 51.85205078 C-119.12490234 50.93423828 -119.76298828 50.01642578 -120.42041016 49.07080078 C-120.9956543 48.25804687 -121.57089844 47.44529297 -122.16357422 46.60791016 C-123.15478516 44.22705078 -123.15478516 44.22705078 -122.4609375 41.60522461 C-120.79200594 38.56652137 -118.76382829 36.06348764 -116.52978516 33.41455078 C-115.71251953 32.43873047 -114.89525391 31.46291016 -114.05322266 30.45751953 C-113.42673828 29.72146484 -112.80025391 28.98541016 -112.15478516 28.22705078 C-108.60475886 29.68607258 -106.89464992 31.50122492 -104.59228516 34.53955078 C-100.9268308 39.26982987 -97.12237202 43.84226366 -93.23388672 48.38818359 C-90.33923414 51.78642917 -87.56705544 55.25203831 -84.84228516 58.78955078 C-80.82290038 63.80359061 -77.81521118 66.88921891 -71.21728516 67.72705078 C-66.14848135 67.81314511 -61.90301145 64.8282687 -58.29956055 61.52783203 C-56.37025341 59.55024799 -54.50465128 57.52906722 -52.65478516 55.47705078 C-52.02958984 54.79900391 -51.40439453 54.12095703 -50.76025391 53.42236328 C-47.04306671 49.37424638 -43.41722639 45.25043313 -39.80712891 41.10693359 C-37.38651102 38.35298003 -34.90162797 35.66178667 -32.40478516 32.97705078 C-31.35903315 31.84831043 -30.31346429 30.71940037 -29.26806641 29.59033203 C-28.48810303 28.74849365 -28.48810303 28.74849365 -27.69238281 27.88964844 C-25.31770422 25.3219188 -22.95434023 22.74388941 -20.59228516 20.16455078 C-19.26197266 18.71242188 -19.26197266 18.71242188 -17.90478516 17.23095703 C-15.96668869 15.11431483 -14.02942197 12.99691498 -12.09228516 10.87939453 C-11.59027588 10.330979 -11.0882666 9.78256348 -10.57104492 9.2175293 C-9.60759072 8.16499892 -8.64451811 7.11211907 -7.68188477 6.05883789 C-2.36285723 0.24897544 -2.36285723 0.24897544 0 0 Z " fill="#26528F" transform="translate(1588.15478515625,442.77294921875)"/>
<path d="M0 0 C1.68919052 -0.01441132 1.68919052 -0.01441132 3.4125061 -0.02911377 C4.6342453 -0.03336365 5.8559845 -0.03761353 7.11474609 -0.04199219 C8.37974945 -0.04769226 9.64475281 -0.05339233 10.9480896 -0.05926514 C13.63649075 -0.0687269 16.32478007 -0.07561572 19.01318359 -0.07910156 C21.73825741 -0.08345047 24.46300822 -0.0971981 27.18798828 -0.12011719 C74.61207996 -0.51129429 74.61207996 -0.51129429 90.13818359 13.53613281 C96.96502743 21.08159179 98.96329152 28.01353544 98.76318359 38.04394531 C97.67880607 51.56477757 91.38565977 63.04216338 81.51318359 72.16113281 C74.20217681 77.77216385 65.92884749 81.50854737 57.51318359 85.16113281 C58.37943359 85.63550781 59.24568359 86.10988281 60.13818359 86.59863281 C73.38675299 95.67000621 75.09584117 116.21266686 78.32568359 130.72363281 C78.56434647 131.78555344 78.56434647 131.78555344 78.80783081 132.868927 C79.26659332 134.92415329 79.71403891 136.98150883 80.15771484 139.04003906 C80.41915283 140.24217041 80.68059082 141.44430176 80.94995117 142.68286133 C81.53903909 146.3208048 81.89230301 149.48856901 81.51318359 153.16113281 C79.29494161 155.85309055 77.81858563 156.12189055 74.36865234 156.56518555 C73.15822266 156.57493408 71.94779297 156.58468262 70.70068359 156.59472656 C70.04994873 156.59996841 69.39921387 156.60521027 68.72875977 156.61061096 C67.35711083 156.61701564 65.98540686 156.61571423 64.61376953 156.60717773 C62.51934838 156.59865789 60.42764863 156.62745756 58.33349609 156.65917969 C56.99755941 156.66079173 55.66161791 156.6602141 54.32568359 156.65722656 C52.51003906 156.6600061 52.51003906 156.6600061 50.65771484 156.6628418 C46.87570767 156.05942373 45.74616303 155.23115077 43.51318359 152.16113281 C42.66357422 149.80541992 42.66357422 149.80541992 42.16943359 147.18847656 C41.97736328 146.21539551 41.78529297 145.24231445 41.58740234 144.23974609 C41.39791016 143.20317871 41.20841797 142.16661133 41.01318359 141.09863281 C40.80306641 140.03112793 40.59294922 138.96362305 40.37646484 137.86376953 C39.55606202 133.69276698 38.76816116 129.51593549 37.98193359 125.33837891 C35.3623163 109.75488936 35.3623163 109.75488936 27.07568359 96.66113281 C21.42645626 93.35426803 16.02702824 92.79601802 9.63818359 92.53613281 C8.85443359 92.49746094 8.07068359 92.45878906 7.26318359 92.41894531 C5.34686992 92.3254666 3.43006041 92.24224787 1.51318359 92.16113281 C1.42029053 92.86463867 1.32739746 93.56814453 1.23168945 94.29296875 C-0.13291645 103.88976554 -2.17252388 113.289403 -4.31811523 122.73730469 C-4.92604837 125.41877217 -5.52422216 128.10229246 -6.12158203 130.78613281 C-6.51227718 132.52063876 -6.90353377 134.25501836 -7.29541016 135.98925781 C-7.4705162 136.77697571 -7.64562225 137.5646936 -7.82603455 138.37628174 C-8.34585701 140.64782913 -8.90726864 142.90413606 -9.48681641 145.16113281 C-9.68260284 145.98657593 -9.87838928 146.81201904 -10.08010864 147.66247559 C-10.71509794 149.98612317 -11.35392938 152.03492093 -12.48681641 154.16113281 C-16.37649126 156.29669348 -20.04972571 156.41683163 -24.43603516 156.42675781 C-25.53109375 156.42933594 -26.62615234 156.43191406 -27.75439453 156.43457031 C-28.88296875 156.42683594 -30.01154297 156.41910156 -31.17431641 156.41113281 C-32.31449219 156.41886719 -33.45466797 156.42660156 -34.62939453 156.43457031 C-35.72058594 156.43199219 -36.81177734 156.42941406 -37.93603516 156.42675781 C-38.92949951 156.42450195 -39.92296387 156.42224609 -40.9465332 156.41992188 C-43.48681641 156.16113281 -43.48681641 156.16113281 -46.48681641 154.16113281 C-46.94943796 148.46317738 -46.11625246 143.4206368 -44.79931641 137.89550781 C-44.62128983 137.11673782 -44.44326324 136.33796783 -44.25984192 135.53559875 C-43.67672226 132.99221988 -43.0817621 130.45176874 -42.48681641 127.91113281 C-42.07530915 126.12546145 -41.66475973 124.3395691 -41.25512695 122.5534668 C-40.62473485 119.80562153 -39.99365148 117.05795381 -39.35929871 114.3110199 C-37.45143621 106.04657277 -35.61827286 97.76656981 -33.79656982 89.48278809 C-31.20201783 77.69504442 -28.50983329 65.94020588 -25.64111328 54.21557617 C-23.43349554 45.11973747 -21.47922422 35.97397549 -19.578125 26.80957031 C-18.47274485 21.52977277 -17.32088996 16.26626517 -15.99853516 11.03613281 C-15.78028076 10.16988281 -15.56202637 9.30363281 -15.3371582 8.41113281 C-13.92138729 4.6650103 -11.84355585 3.25909496 -8.48681641 1.16113281 C-5.39739094 0.13132432 -3.23896003 0.0223347 0 0 Z " fill="#EA8005" transform="translate(2400.48681640625,570.8388671875)"/>
<path d="M0 0 C0.83789062 -0.01224609 1.67578125 -0.02449219 2.5390625 -0.03710938 C7.30961817 -0.04836069 11.14231565 0.34040042 15.625 2.1875 C15.17049494 10.10209765 14.05609235 17.46143854 12.0625 25.125 C9.41164269 35.73005653 7.03067996 46.37350003 4.75 57.0625 C1.8176324 70.76616978 -1.20657452 84.44465778 -4.36572266 98.09790039 C-4.69699214 99.53009864 -5.02820948 100.96230896 -5.359375 102.39453125 C-5.6056514 103.45904259 -5.6056514 103.45904259 -5.85690308 104.5450592 C-6.92611 109.18536248 -7.96168378 113.83215088 -8.97717285 118.48449707 C-9.68263406 121.71368936 -10.39722254 124.94083418 -11.11230469 128.16790771 C-11.45016309 129.70472099 -11.78360611 131.24251261 -12.11230469 132.78131104 C-12.56860265 134.91550361 -13.0404673 137.04572054 -13.515625 139.17578125 C-13.77891602 140.38790283 -14.04220703 141.60002441 -14.31347656 142.84887695 C-15.90985945 147.8696994 -18.19112936 151.23276561 -22.28125 154.53125 C-27.72877151 157.33050945 -33.90787202 156.76457808 -39.875 156.6875 C-41.07253906 156.70296875 -42.27007813 156.7184375 -43.50390625 156.734375 C-50.28785782 156.70432427 -54.98894131 156.48299309 -60.375 152.1875 C-66.93049608 143.84829917 -69.67103854 131.3131785 -73.14453125 121.44921875 C-74.99335489 116.2139125 -76.95124197 111.03481344 -79 105.875 C-81.74683633 98.93169547 -84.24953548 91.92377484 -86.67578125 84.86254883 C-88.80590994 78.70217387 -91.12613908 72.63244286 -93.5 66.5625 C-97.12097115 57.26111407 -99.91949413 47.85605435 -102.375 38.1875 C-102.66890625 39.85232422 -102.66890625 39.85232422 -102.96875 41.55078125 C-105.18250618 53.75469002 -107.84359794 65.83648763 -110.64126587 77.91671753 C-113.2039472 88.9855175 -115.67235733 100.07009105 -118.05178833 111.17974854 C-122.93994844 133.98570998 -122.93994844 133.98570998 -125.1875 143.8125 C-125.37014404 144.64700684 -125.55278809 145.48151367 -125.7409668 146.34130859 C-126.63633298 150.17008463 -127.26805341 152.71367557 -130.375 155.1875 C-135.13649206 156.91233573 -140.44454988 156.3717891 -145.4375 156.375 C-146.44361328 156.38724609 -147.44972656 156.39949219 -148.48632812 156.41210938 C-149.93362305 156.41500977 -149.93362305 156.41500977 -151.41015625 156.41796875 C-152.2906665 156.42207764 -153.17117676 156.42618652 -154.07836914 156.43041992 C-156.375 156.1875 -156.375 156.1875 -159.375 154.1875 C-159.81722367 149.17653374 -159.01108003 144.70294523 -157.90625 139.82421875 C-157.75046478 139.12766678 -157.59467957 138.43111481 -157.43417358 137.7134552 C-156.9217925 135.43224128 -156.39856044 133.15367175 -155.875 130.875 C-155.51137148 129.26704234 -155.14826128 127.65896738 -154.78564453 126.05078125 C-152.17920549 114.53283159 -149.46994741 103.0391219 -146.74243164 91.54934692 C-144.5142561 82.1581997 -142.37622837 72.75526221 -140.375 63.3125 C-140.14240479 62.21591064 -139.90980957 61.11932129 -139.67016602 59.98950195 C-139.43225342 58.86761475 -139.19434082 57.74572754 -138.94921875 56.58984375 C-137.23028828 48.48855695 -135.49010082 40.39214817 -133.7175293 32.3024292 C-133.36792483 30.70130997 -133.02086234 29.09963329 -132.67651367 27.49737549 C-132.19331202 25.25065338 -131.70118611 23.00605362 -131.20703125 20.76171875 C-130.99636772 19.76816124 -130.99636772 19.76816124 -130.78144836 18.75453186 C-129.22820835 11.79480579 -127.52638762 6.28842508 -121.375 2.1875 C-116.91440576 -0.04279712 -110.84289418 0.96026971 -105.88183594 0.94726562 C-103.64740245 0.93759694 -101.41390358 0.90659298 -99.1796875 0.875 C-97.75000544 0.86846591 -96.32031682 0.86321704 -94.890625 0.859375 C-92.94591309 0.84535645 -92.94591309 0.84535645 -90.96191406 0.83105469 C-85.99374088 1.32476098 -82.69391871 2.84006413 -79.20703125 6.40234375 C-77.03843381 9.69916672 -75.5060205 13.09671397 -74.0625 16.75 C-73.76545166 17.48524902 -73.46840332 18.22049805 -73.16235352 18.97802734 C-70.54858158 25.54237012 -68.22327848 32.20121115 -65.93041992 38.88305664 C-64.20875374 43.88124014 -62.37581276 48.7942656 -60.375 53.6875 C-57.43067848 60.91235228 -54.86600359 68.24279806 -52.3125 75.61328125 C-50.0971288 82.00458062 -47.83759274 88.37974034 -45.5625 94.75 C-45.17731201 95.83909668 -44.79212402 96.92819336 -44.39526367 98.05029297 C-44.03150635 99.06623535 -43.66774902 100.08217773 -43.29296875 101.12890625 C-42.97094482 102.03326416 -42.6489209 102.93762207 -42.31713867 103.86938477 C-41.38007581 106.39720283 -41.38007581 106.39720283 -39.375 109.1875 C-39.16407715 108.10670166 -38.9531543 107.02590332 -38.73583984 105.91235352 C-31.59071852 69.37983391 -31.59071852 69.37983391 -27.53149414 53.04638672 C-25.30213348 44.04826389 -23.36192305 34.99664588 -21.46630859 25.92285156 C-20.78398938 22.67430443 -20.08581135 19.42992757 -19.375 16.1875 C-19.13185059 15.07068848 -18.88870117 13.95387695 -18.63818359 12.80322266 C-18.3902002 11.72991699 -18.1422168 10.65661133 -17.88671875 9.55078125 C-17.66846436 8.59083252 -17.45020996 7.63088379 -17.2253418 6.6418457 C-16.30958098 3.99868076 -15.60850212 2.84327572 -13.375 1.1875 C-9.06792711 -0.33396664 -4.51180635 0.00343888 0 0 Z " fill="#0D6D02" transform="translate(722.375,569.8125)"/>
<path d="M0 0 C1.19302734 -0.01224609 2.38605469 -0.02449219 3.61523438 -0.03710938 C5.33516602 -0.04000977 5.33516602 -0.04000977 7.08984375 -0.04296875 C8.13906006 -0.04707764 9.18827637 -0.05118652 10.26928711 -0.05541992 C13.09553162 0.19037269 14.60701337 0.86276341 17.0625 2.1875 C16.45999453 8.3500623 15.52880515 14.29408408 14.20703125 20.33984375 C14.02490585 21.1891597 13.84278046 22.03847565 13.65513611 22.91352844 C13.06642862 25.65171767 12.47100662 28.38839109 11.875 31.125 C11.46435699 33.02503026 11.0538763 34.92509562 10.64355469 36.82519531 C8.43073681 47.04418184 6.17335494 57.25159812 3.8125 67.4375 C3.57877686 68.4483667 3.34505371 69.4592334 3.10424805 70.50073242 C1.96613144 75.39499614 0.79564186 80.27918102 -0.4140625 85.15625 C-5.51659839 104.41880705 -5.51659839 104.41880705 -0.6328125 123.125 C3.1393713 127.71420057 8.35837115 129.95310783 14.0625 131.1875 C16.97672396 131.40135832 19.89114004 131.37261327 22.8125 131.375 C23.5859375 131.38724609 24.359375 131.39949219 25.15625 131.41210938 C36.31800702 131.44020105 47.43223963 127.69851429 55.875 120.1875 C67.24292229 107.25063928 69.53204582 89.44216928 73.0625 73.1875 C73.3188623 72.01251953 73.57522461 70.83753906 73.83935547 69.62695312 C75.08452646 63.89446781 76.30742085 58.15752548 77.51953125 52.41796875 C79.06009569 45.15329795 80.66258063 37.90339951 82.29272461 30.65838623 C82.73535116 28.69013963 83.17533809 26.72130001 83.61523438 24.75244141 C84.41143594 21.22593976 85.2353536 17.70684641 86.0625 14.1875 C86.40788818 12.58479248 86.40788818 12.58479248 86.76025391 10.94970703 C86.99019043 9.96728027 87.22012695 8.98485352 87.45703125 7.97265625 C87.6475708 7.11679932 87.83811035 6.26094238 88.03442383 5.37915039 C89.46537911 2.32864325 91.01059222 1.54006537 94.0625 0.1875 C96.84570312 -0.18481445 96.84570312 -0.18481445 99.84375 -0.17578125 C100.93300781 -0.17513672 102.02226562 -0.17449219 103.14453125 -0.17382812 C104.27246094 -0.15771484 105.40039062 -0.14160156 106.5625 -0.125 C108.25439453 -0.12983398 108.25439453 -0.12983398 109.98046875 -0.13476562 C115.20712249 -0.10074599 119.25090147 -0.02001307 124.0625 2.1875 C123.48756881 8.13600926 122.60362613 13.80756368 121.20703125 19.61328125 C121.02495117 20.39026871 120.84287109 21.16725616 120.65527344 21.9677887 C120.26694915 23.62346542 119.87640745 25.27862343 119.48379517 26.93328857 C118.44669426 31.30575883 117.42648646 35.68216282 116.40625 40.05859375 C116.20288528 40.92969788 115.99952057 41.800802 115.78999329 42.69830322 C114.06031721 50.13461808 112.44541721 57.59082891 110.875 65.0625 C97.53503903 127.93784801 97.53503903 127.93784801 74.01171875 144.3046875 C65.25179135 149.89711797 56.12838318 153.64210425 46.0625 156.1875 C45.38509766 156.36627686 44.70769531 156.54505371 44.00976562 156.72924805 C36.7048158 158.44756451 29.43825224 158.52595443 21.97802734 158.50317383 C19.82988091 158.50002547 17.68313239 158.52350865 15.53515625 158.54882812 C-1.43221258 158.62677406 -18.20745922 155.66717411 -30.80859375 143.53125 C-33.71392697 140.33271801 -35.96634372 137.0230416 -37.9375 133.1875 C-38.288125 132.57519531 -38.63875 131.96289062 -39 131.33203125 C-45.23348499 117.07293433 -40.33484153 97.67931335 -36.875 83.3125 C-36.45987802 81.51648257 -36.04674198 79.72000507 -35.63549805 77.9230957 C-34.61507071 73.48645185 -33.57077347 69.05589843 -32.51672363 64.62713623 C-31.66423281 61.03652393 -30.82772191 57.44224526 -29.9921875 53.84765625 C-29.13489523 50.16353999 -28.27499633 46.48026927 -27.40112305 42.80004883 C-25.93949247 36.62477721 -24.55342717 30.44234196 -23.27734375 24.2265625 C-23.14237991 23.57414078 -23.00741608 22.92171906 -22.86836243 22.24952698 C-22.22346699 19.1282448 -21.59060236 16.00544539 -20.9777832 12.87768555 C-20.7530835 11.77980713 -20.52838379 10.68192871 -20.296875 9.55078125 C-20.10577148 8.58438721 -19.91466797 7.61799316 -19.71777344 6.62231445 C-18.8689192 3.97349614 -18.12814231 2.86519026 -15.9375 1.1875 C-10.79873014 -0.52542329 -5.37888115 0.00289654 0 0 Z " fill="#EA8005" transform="translate(2224.9375,570.8125)"/>
<path d="M0 0 C0.8963063 -0.00189835 1.79261261 -0.00379669 2.71607971 -0.00575256 C5.67645025 -0.0094552 8.63657513 0.00123457 11.59692383 0.01245117 C13.65147371 0.01364311 15.70602413 0.0140961 17.76057434 0.01383972 C22.06372494 0.01540357 26.36679223 0.02368749 30.66992188 0.03710938 C36.19851763 0.0541311 41.72702209 0.05792276 47.25564098 0.05716419 C51.49596536 0.05743543 55.7362696 0.06290859 59.9765873 0.07016563 C62.0160437 0.0733574 64.0555024 0.07532089 66.09496117 0.07605934 C68.93704538 0.07821573 71.77903062 0.08694373 74.62109375 0.09765625 C75.47148224 0.09720306 76.32187073 0.09674988 77.19802856 0.09628296 C83.00197854 0.12844338 83.00197854 0.12844338 84.11645508 1.24291992 C84.84965284 9.32011495 84.49254579 16.26353437 80.11645508 23.24291992 C77.38339479 25.97598021 75.84178848 25.51673953 72.0144043 25.56176758 C70.73322723 25.58163727 69.45205017 25.60150696 68.13204956 25.62197876 C66.72841566 25.63385609 65.32477992 25.6455189 63.92114258 25.65698242 C62.48909377 25.67568684 61.05705606 25.6952597 59.62503052 25.71566772 C55.85380591 25.76707198 52.08254553 25.80665303 48.31115723 25.84381104 C44.46361382 25.88379892 40.61622025 25.93491497 36.76879883 25.98510742 C29.21812025 26.08196479 21.66736939 26.16633787 14.11645508 26.24291992 C13.76079468 27.81759033 13.76079468 27.81759033 13.39794922 29.42407227 C12.51904733 33.31219863 11.63675121 37.19954813 10.75341797 41.08666992 C10.37130318 42.77037843 9.99011397 44.45429726 9.60986328 46.13842773 C9.06370319 48.55662808 8.51423835 50.97405688 7.96411133 53.39135742 C7.79428238 54.14661713 7.62445343 54.90187683 7.44947815 55.68002319 C6.23032678 61.01517651 6.23032678 61.01517651 5.11645508 63.24291992 C5.80327866 63.24069931 6.49010223 63.2384787 7.19773865 63.2361908 C14.31850669 63.21414097 21.43926511 63.1990146 28.56005859 63.18798828 C31.22086989 63.18294609 33.8816784 63.17611256 36.54248047 63.16748047 C40.35751024 63.15540984 44.17250351 63.14969063 47.98754883 63.14526367 C49.1854454 63.14010239 50.38334198 63.1349411 51.61753845 63.12962341 C53.26913719 63.12951012 53.26913719 63.12951012 54.95410156 63.12939453 C56.41637428 63.12606361 56.41637428 63.12606361 57.90818787 63.12266541 C60.11645508 63.24291992 60.11645508 63.24291992 61.11645508 64.24291992 C61.64105986 71.32508442 61.01634889 79.67838385 56.38922119 85.36602783 C53.60874055 87.66219992 52.27213378 87.75548367 48.70532227 87.78881836 C47.62450378 87.80853699 46.5436853 87.82825562 45.43011475 87.84857178 C44.26957581 87.84980042 43.10903687 87.85102905 41.91333008 87.85229492 C40.12394012 87.8770993 40.12394012 87.8770993 38.29840088 87.90240479 C34.48770048 87.95099522 30.67739948 87.97228131 26.86645508 87.99291992 C24.28310153 88.02107019 21.69976668 88.05099628 19.11645508 88.08276367 C12.78319452 88.15675739 6.4500468 88.20833519 0.11645508 88.24291992 C-0.15094482 89.43892822 -0.41834473 90.63493652 -0.69384766 91.8671875 C-1.68560639 96.3011333 -2.67940717 100.73461932 -3.67382812 105.16796875 C-4.10407403 107.08744002 -4.53376478 109.00703582 -4.96289062 110.92675781 C-5.57951558 113.68481789 -6.19813044 116.44242515 -6.81713867 119.19995117 C-7.0088414 120.05941849 -7.20054413 120.9188858 -7.39805603 121.80439758 C-7.57816727 122.60500107 -7.7582785 123.40560455 -7.94384766 124.23046875 C-8.10151108 124.93440262 -8.2591745 125.63833649 -8.4216156 126.36360168 C-8.82688383 128.01239932 -9.34663003 129.63217526 -9.88354492 131.24291992 C-9.07144058 131.24069931 -8.25933624 131.2384787 -7.42262268 131.2361908 C0.21474456 131.21618921 7.85209918 131.20094647 15.48948574 131.19110775 C19.41634166 131.18587961 23.34317602 131.17878323 27.27001953 131.16748047 C31.05659765 131.15664912 34.84315498 131.15064256 38.62974739 131.14804268 C40.07749827 131.14618888 41.52524796 131.14256911 42.97299004 131.13718987 C44.99402642 131.12997625 47.01508355 131.12951184 49.03613281 131.12939453 C50.18863022 131.12717392 51.34112762 131.12495331 52.52854919 131.12266541 C55.11645508 131.24291992 55.11645508 131.24291992 56.11645508 132.24291992 C56.7419556 139.87402625 55.12132645 146.21327559 52.11645508 153.24291992 C49.44874981 155.91062519 47.4369566 155.4931992 43.80865479 155.52508545 C42.92288757 155.52260803 42.03712036 155.52013062 41.12451172 155.51757812 C40.19269577 155.52268906 39.26087982 155.52779999 38.30082703 155.5330658 C35.20935712 155.5470075 32.118109 155.54600158 29.02661133 155.54370117 C26.8843121 155.54758562 24.74201364 155.55191976 22.59971619 155.5566864 C18.10470078 155.56415849 13.60976391 155.5638502 9.11474609 155.55859375 C3.34629337 155.55279815 -2.42183837 155.56972766 -8.190238 155.59293842 C-12.61595041 155.60765002 -17.04158506 155.60855097 -21.46731758 155.6054287 C-23.59444375 155.60594322 -25.72157412 155.61120531 -27.84867668 155.62124062 C-30.82006734 155.63353768 -33.79082694 155.62685379 -36.76220703 155.61523438 C-37.64595001 155.62287811 -38.52969299 155.63052185 -39.44021606 155.63839722 C-40.24920853 155.6313829 -41.05820099 155.62436859 -41.89170837 155.61714172 C-42.94556937 155.61739334 -42.94556937 155.61739334 -44.02072048 155.61765003 C-46.48967483 155.12098941 -47.37598468 154.23203305 -48.88354492 152.24291992 C-49.77427509 144.54774588 -47.52713916 137.0822615 -45.82104492 129.61791992 C-45.50068841 128.18731176 -45.18095672 126.75656355 -44.86181641 125.32568359 C-42.51178767 114.83278223 -40.0541365 104.3647964 -37.58276367 93.89990234 C-35.20388841 83.76919773 -32.99759515 73.60616109 -30.82104492 63.43041992 C-28.09596093 50.69221005 -25.24120958 38.00010399 -22.11791992 25.35229492 C-21.35366286 22.24735801 -20.64074893 19.146112 -20.02416992 16.00854492 C-18.56634685 8.71942957 -17.46677024 5.37876965 -11.27861023 1.14482117 C-7.59241563 -0.24327605 -3.88596931 -0.02586382 0 0 Z " fill="#EA7F04" transform="translate(2698.883544921875,570.757080078125)"/>
<path d="M0 0 C201.63 0 403.26 0 611 0 C611 5.28 611 10.56 611 16 C409.37 16 207.74 16 0 16 C0 10.72 0 5.44 0 0 Z " fill="#25518F" transform="translate(1107,773)"/>
<path d="M0 0 C2.73723307 4.10584961 2.48184448 7.18155523 2 12 C0.74328013 18.10930975 -1.21846649 23.04488712 -5 28 C-9.25135903 27.78198159 -11.80507302 26.6026502 -15.1875 24.1875 C-27.08161323 16.06898521 -41.04283091 14.77400437 -55.12451172 17.39550781 C-62.87472485 19.41343442 -69.14567913 23.6757948 -75 29 C-75.61359375 29.53367187 -76.2271875 30.06734375 -76.859375 30.6171875 C-91.45276295 44.11284273 -99.02298209 65.74631568 -99.97412109 85.21655273 C-100.25679296 95.78822101 -98.71277168 104.58583457 -92 113 C-85.84464144 119.12590708 -77.38381779 121.36827517 -68.89453125 121.36132812 C-68.10433594 121.34521484 -67.31414063 121.32910156 -66.5 121.3125 C-65.70980469 121.31572266 -64.91960938 121.31894531 -64.10546875 121.32226562 C-53.07670854 121.22298873 -42.41464695 118.02162561 -32.75 112.75 C-28.9838084 110.75796477 -26.21666902 110.64861092 -22 111 C-21.40925611 119.41810041 -22.54736461 129.60456334 -27.21484375 136.8984375 C-42.10397825 150.44970774 -67.31900958 149.63195372 -86 149 C-101.99056109 148.03423344 -115.83963667 142.62827972 -126.98828125 130.91015625 C-139.51354542 116.07831238 -140.33733238 97.47601418 -139 79 C-135.46951184 51.29993257 -122.20469645 24.91666722 -100.234375 7.3515625 C-72.15068647 -13.06677143 -30.41728141 -19.64449425 0 0 Z " fill="#EA8005" transform="translate(2651,580)"/>
<path d="M0 0 C1.27552734 -0.01998047 2.55105469 -0.03996094 3.86523438 -0.06054688 C5.70891602 -0.05958008 5.70891602 -0.05958008 7.58984375 -0.05859375 C8.71124756 -0.06044678 9.83265137 -0.0622998 10.98803711 -0.06420898 C14.7534468 0.55025277 16.38489569 1.76109064 19.0625 4.4375 C20.1995456 7.11254939 21.04373161 9.5344506 21.8125 12.3125 C22.16876465 13.51676636 22.16876465 13.51676636 22.53222656 14.74536133 C23.07381955 16.5787451 23.60814233 18.41428603 24.13671875 20.25146484 C25.18824792 23.87025591 26.27861854 27.47665483 27.375 31.08203125 C36.41078824 60.86488808 36.41078824 60.86488808 36.0625 66.4375 C39.36715235 63.38987617 41.59353184 60.2010492 43.9375 56.375 C49.25766128 47.87997692 55.26348861 39.92208433 61.24853516 31.88964844 C64.20541211 27.89249202 67.10022468 23.85115606 70 19.8125 C77.17909096 9.86120012 77.17909096 9.86120012 80.125 5.9375 C80.85396484 4.96296875 80.85396484 4.96296875 81.59765625 3.96875 C84.22118484 1.22628811 86.43335415 0.48901754 90.22290039 0.17871094 C91.43969482 0.17645508 92.65648926 0.17419922 93.91015625 0.171875 C94.56326279 0.16996155 95.21636932 0.1680481 95.88926697 0.16607666 C97.26513048 0.1647198 98.64100702 0.16838132 100.0168457 0.17675781 C102.12154858 0.18748241 104.22540135 0.17683747 106.33007812 0.1640625 C107.66927271 0.16538385 109.00846677 0.16794573 110.34765625 0.171875 C111.56332275 0.17413086 112.77898926 0.17638672 114.03149414 0.17871094 C117.0625 0.4375 117.0625 0.4375 120.0625 2.4375 C119.52789021 6.8580048 117.96316093 9.32205512 115.25 12.8125 C114.85474121 13.32506348 114.45948242 13.83762695 114.05224609 14.36572266 C112.73406929 16.06589135 111.40071909 17.75306794 110.0625 19.4375 C109.59312012 20.02917969 109.12374023 20.62085938 108.64013672 21.23046875 C106.13874378 24.37670619 103.625311 27.51305746 101.10546875 30.64453125 C98.21203892 34.24363085 95.34966625 37.86619054 92.5 41.5 C92.05027832 42.07347168 91.60055664 42.64694336 91.13720703 43.23779297 C90.23175925 44.39292977 89.32648535 45.54820289 88.42138672 46.70361328 C85.6796488 50.20196446 82.93175044 53.6954795 80.18505859 57.18994141 C77.90393761 60.09252423 75.62421737 62.99618273 73.34765625 65.90234375 C67.50531773 73.35643414 61.61579768 80.77110393 55.69140625 88.16015625 C55.2418457 88.73161377 54.79228516 89.30307129 54.32910156 89.8918457 C53.0625 91.4375 53.0625 91.4375 50.89453125 93.609375 C47.92046786 98.20046646 47.25200737 103.31219493 46.1875 108.625 C45.67553717 111.04840084 45.16248607 113.47157198 44.6484375 115.89453125 C44.25930176 117.75779053 44.25930176 117.75779053 43.86230469 119.65869141 C42.57830698 125.72514946 41.2009179 131.76922841 39.8125 137.8125 C39.44342529 139.45061646 39.44342529 139.45061646 39.06689453 141.12182617 C38.83341309 142.14123291 38.59993164 143.16063965 38.359375 144.2109375 C38.15666992 145.10216309 37.95396484 145.99338867 37.74511719 146.91162109 C35.83112483 153.99394047 35.83112483 153.99394047 32.81689453 155.73339844 C29.77547263 156.51087236 27.13131829 156.69634188 23.9921875 156.703125 C22.84878906 156.70570313 21.70539062 156.70828125 20.52734375 156.7109375 C19.34269531 156.70320312 18.15804687 156.69546875 16.9375 156.6875 C15.74511719 156.69523438 14.55273438 156.70296875 13.32421875 156.7109375 C12.18339844 156.70835937 11.04257812 156.70578125 9.8671875 156.703125 C8.82546387 156.70086914 7.78374023 156.69861328 6.71044922 156.69628906 C4.0625 156.4375 4.0625 156.4375 1.0625 154.4375 C1.51280205 145.36325965 2.84779821 136.83276014 4.9375 128 C5.47926191 125.6315322 6.02092958 123.26304284 6.5625 120.89453125 C7.06187965 118.74204348 7.5618169 116.58968495 8.0625 114.4375 C8.69801166 111.68956057 9.32251011 108.94017109 9.9375 106.1875 C10.16179688 105.21296875 10.38609375 104.2384375 10.6171875 103.234375 C11.81435746 95.71530752 10.24146873 90.06754812 7.765625 83.046875 C7.42033249 82.04063583 7.07503998 81.03439667 6.71928406 79.99766541 C5.5934473 76.72415194 4.45287587 73.45597347 3.3125 70.1875 C2.53608728 67.93503175 1.7607845 65.68218062 0.98657227 63.42895508 C-2.26721342 53.97241362 -5.55629609 44.52818812 -8.84786987 35.08474731 C-9.97594812 31.84472657 -11.09925051 28.6030607 -12.2220459 25.36120605 C-12.98535929 23.16708428 -13.75831093 20.97653338 -14.53222656 18.78613281 C-14.99189809 17.46562062 -15.45123019 16.1449902 -15.91015625 14.82421875 C-16.30468994 13.70233154 -16.69922363 12.58044434 -17.10571289 11.42456055 C-17.91969512 8.50143975 -18.43069983 6.43345724 -17.9375 3.4375 C-13.47352688 -1.53205936 -6.11981852 -0.03391335 0 0 Z " fill="#0C6D01" transform="translate(986.9375,569.5625)"/>
<path d="M0 0 C1.05162827 -0.00563965 2.10325653 -0.0112793 3.18675232 -0.01708984 C4.34526199 -0.01304138 5.50377167 -0.00899292 6.6973877 -0.00482178 C7.91366348 -0.00832642 9.12993927 -0.01183105 10.3830719 -0.01544189 C13.72397711 -0.02275094 17.06463557 -0.0210169 20.40552711 -0.01468372 C23.89730798 -0.00962981 27.38907811 -0.01431348 30.88085938 -0.01745605 C36.74533996 -0.02109748 42.60977022 -0.01629199 48.47424316 -0.0067749 C55.2600589 0.00411001 62.04575447 0.00058456 68.83156729 -0.01042771 C74.65155871 -0.01949558 80.4715139 -0.02078833 86.29151011 -0.01555037 C89.77024207 -0.0124279 93.24891751 -0.01202888 96.72764587 -0.01862335 C100.60432631 -0.02545851 104.48087149 -0.01599222 108.35754395 -0.00482178 C109.51605362 -0.00887024 110.67456329 -0.0129187 111.86817932 -0.01708984 C112.91980759 -0.0114502 113.97143585 -0.00581055 115.05493164 0 C115.9722834 0.00075405 116.88963516 0.0015081 117.83478546 0.002285 C120.02746582 0.25396729 120.02746582 0.25396729 122.02746582 2.25396729 C123.18668011 9.89669404 121.73050271 17.48792458 118.02746582 24.25396729 C115.14341317 26.86563609 113.31385583 27.6271672 109.44250488 27.59454346 C108.09155731 27.59420357 108.09155731 27.59420357 106.71331787 27.59385681 C105.74964294 27.57837296 104.78596802 27.5628891 103.79309082 27.54693604 C102.79992859 27.54269119 101.80676636 27.53844635 100.7835083 27.53407288 C97.61455054 27.51729362 94.44623104 27.47964229 91.27746582 27.44146729 C89.12773543 27.4264195 86.97799506 27.41273126 84.82824707 27.40045166 C79.56110259 27.36739264 74.29432981 27.31720062 69.02746582 27.25396729 C68.90452148 28.37206787 68.78157715 29.49016846 68.65490723 30.64215088 C68.04417936 35.50810081 67.04164009 40.25626268 65.98840332 45.04302979 C65.78690674 45.97110947 65.58541016 46.89918915 65.37780762 47.85539246 C64.72318335 50.86409932 64.06306791 53.87156776 63.40246582 56.87896729 C62.94488872 58.97392541 62.48736962 61.06889621 62.02990723 63.16387939 C59.31656044 75.55665567 56.52053479 87.92510824 53.58068848 100.26617432 C51.94096539 107.19213994 50.39777012 114.13046214 48.92590332 121.09381104 C48.74687469 121.93754776 48.56784607 122.78128448 48.38339233 123.65058899 C47.50428654 127.79818604 46.63428577 131.9473548 45.77893066 136.09991455 C45.46103964 137.60966317 45.14285718 139.11935047 44.82434082 140.62896729 C44.68708588 141.31196396 44.54983093 141.99496063 44.40841675 142.69865417 C43.50419912 146.9342922 42.37519579 150.59684858 40.02746582 154.25396729 C36.46883699 156.33403986 33.28062548 156.51037246 29.21105957 156.51959229 C28.11729004 156.52217041 27.02352051 156.52474854 25.89660645 156.52740479 C24.19794434 156.51580322 24.19794434 156.51580322 22.46496582 156.50396729 C21.32865723 156.51170166 20.19234863 156.51943604 19.02160645 156.52740479 C17.38288574 156.5235376 17.38288574 156.5235376 15.71105957 156.51959229 C14.71646729 156.51733643 13.721875 156.51508057 12.69714355 156.51275635 C9.99084406 156.2504173 8.34210066 155.63786949 6.02746582 154.25396729 C6.52711579 145.77283984 8.08476676 137.76245689 10.02746582 129.50396729 C10.33813166 128.15793463 10.64808792 126.81173804 10.95739746 125.46539307 C11.79601202 121.82333277 12.64334201 118.18335815 13.49310303 114.54388428 C14.96785638 108.22409029 16.43304855 101.9020663 17.89730835 95.57983398 C18.27587472 93.94536996 18.65472014 92.31097054 19.03384399 90.67663574 C22.93637016 73.84013628 26.60663718 56.95628282 30.2088623 40.05328369 C31.12906056 35.78244409 32.07467001 31.51763199 33.02746582 27.25396729 C32.20727463 27.26062912 32.20727463 27.26062912 31.37051392 27.26742554 C25.69320278 27.31158085 20.01594021 27.34180108 14.33850098 27.36383057 C12.21803812 27.3739048 10.09758921 27.38756462 7.97717285 27.40484619 C4.93400639 27.42903218 1.89102316 27.44043598 -1.15222168 27.44927979 C-2.58040726 27.46476364 -2.58040726 27.46476364 -4.03744507 27.4805603 C-4.91820709 27.48071136 -5.79896912 27.48086243 -6.7064209 27.48101807 C-7.48363495 27.48545929 -8.260849 27.48990051 -9.06161499 27.49447632 C-10.97253418 27.25396729 -10.97253418 27.25396729 -12.97253418 25.25396729 C-13.57537349 16.66350708 -12.36910553 9.16832432 -6.97253418 2.25396729 C-4.42632772 -0.29223918 -3.53083815 0.0029023 0 0 Z " fill="#0F6E04" transform="translate(841.9725341796875,569.7460327148438)"/>
<path d="M0 0 C5.87411661 4.56988074 7.94021746 10.61054854 9.26953125 17.765625 C9.4767793 20.50291412 9.60385589 23.09747731 9.58203125 25.828125 C9.5778418 26.5612793 9.57365234 27.29443359 9.56933594 28.04980469 C9.41792343 35.5270052 8.11701887 42.51163682 6.26953125 49.765625 C6.00269531 50.84199219 5.73585938 51.91835938 5.4609375 53.02734375 C0.44790369 71.1411059 -8.62158155 86.75075301 -25.16015625 96.43359375 C-36.84966635 102.49153135 -50.85868698 103.7163 -63.66796875 100.640625 C-70.20299219 98.53445781 -76.49510222 95.33704266 -80.16796875 89.328125 C-87.67034102 72.22271623 -83.91415294 51.72551796 -77.65966797 34.71459961 C-71.3619984 18.69679421 -62.47249782 5.55148173 -46.73046875 -2.234375 C-45.94800781 -2.646875 -45.16554688 -3.059375 -44.359375 -3.484375 C-30.83935553 -9.55889233 -12.35439298 -7.81875562 0 0 Z " fill="#FEFEFD" transform="translate(2116.73046875,601.234375)"/>
<path d="M0 0 C1.04414062 -0.00257813 2.08828125 -0.00515625 3.1640625 -0.0078125 C4.24429688 -0.00007812 5.32453125 0.00765625 6.4375 0.015625 C7.51773438 0.00789062 8.59796875 0.00015625 9.7109375 -0.0078125 C10.75507812 -0.00523437 11.79921875 -0.00265625 12.875 0 C13.82246094 0.00225586 14.76992188 0.00451172 15.74609375 0.00683594 C18.71950201 0.29274058 20.82369628 0.81005441 23.4375 2.265625 C25.50705752 5.96644821 23.77359239 10.27979551 22.84765625 14.17578125 C22.66830536 14.96240143 22.48895447 15.74902161 22.3041687 16.55947876 C21.71119229 19.15104162 21.10554857 21.73947365 20.5 24.328125 C20.08253756 26.14343457 19.66596306 27.95894856 19.25024414 29.7746582 C18.1896067 34.39883526 17.11923249 39.02069512 16.04602051 43.64196777 C14.64018151 49.70329125 13.25005948 55.7682373 11.86077881 61.83337402 C11.53556114 63.25249823 11.20991465 64.67152424 10.8838501 66.0904541 C8.28581093 77.39979294 5.80763348 88.73216009 3.375 100.078125 C0.9953889 111.16779658 -1.42189842 122.2467448 -3.98141479 133.29647827 C-4.42489388 135.21119813 -4.8649629 137.12670681 -5.30493164 139.04223633 C-5.57297607 140.18845459 -5.84102051 141.33467285 -6.1171875 142.515625 C-6.34905762 143.51078125 -6.58092773 144.5059375 -6.81982422 145.53125 C-8.74339112 152.61341612 -8.74339112 152.61341612 -11.81030273 155.05541992 C-14.95965404 156.44026286 -17.1660084 156.63876501 -20.59765625 156.62890625 C-21.73654297 156.62826172 -22.87542969 156.62761719 -24.04882812 156.62695312 C-25.8190332 156.6027832 -25.8190332 156.6027832 -27.625 156.578125 C-28.80900391 156.58134766 -29.99300781 156.58457031 -31.21289062 156.58789062 C-40.80141263 156.52813213 -40.80141263 156.52813213 -44.5625 154.265625 C-43.95955093 148.98075996 -43.13105695 143.85944834 -41.99609375 138.65625 C-41.84181412 137.94461197 -41.68753448 137.23297394 -41.52857971 136.49977112 C-41.02263535 134.17092536 -40.5114958 131.84325724 -40 129.515625 C-39.63977588 127.86552174 -39.27975342 126.21537445 -38.91992188 124.56518555 C-37.98813308 120.29800059 -37.05121667 116.03195941 -36.11248779 111.76629639 C-35.58445238 109.36543754 -35.05784994 106.96426933 -34.53173828 104.56298828 C-30.80372391 87.55713786 -26.96643544 70.58250238 -22.93276978 53.64642334 C-20.29359858 42.55968097 -17.8294259 31.44883296 -15.55224609 20.28125 C-14.56550729 15.5263707 -13.53573881 10.78560839 -12.20703125 6.11328125 C-12.01085205 5.41340088 -11.81467285 4.71352051 -11.61254883 3.99243164 C-9.14171999 -0.07084954 -4.32085856 0.01028776 0 0 Z " fill="#0D6D02" transform="translate(787.5625,569.734375)"/>
<path d="M0 0 C4.08782983 3.01930836 5.98764737 6.50095294 7.62890625 11.203125 C9.14095375 22.17426032 5.76138403 33.4243119 -0.75390625 42.2734375 C-6.52592786 49.16082561 -13.26684133 53.46313431 -22.40087891 54.41455078 C-31.84339495 55.00536979 -40.49392191 55.10486247 -48.18359375 48.953125 C-53.45221851 42.32971101 -54.19452203 36.48315379 -53.37109375 28.203125 C-51.34332717 17.05040878 -45.55527124 7.81057935 -36.37109375 1.203125 C-26.66070518 -4.50886828 -10.02925074 -5.57398671 0 0 Z " fill="#0A0A0A" transform="translate(2237.37109375,848.796875)"/>
<path d="M0 0 C0.81662109 -0.02900391 1.63324219 -0.05800781 2.47460938 -0.08789062 C8.37413088 -0.14900121 12.76450374 0.98876357 17.6875 4.3125 C23.00838541 9.91343201 24.14790528 14.37297964 24 21.953125 C22.96690806 33.05886341 18.54396988 42.88893328 10.5 50.625 C1.44366749 57.66228002 -9.20056968 58.45278042 -20.26708984 57.58300781 C-25.70507904 56.86382758 -30.05228054 54.76767101 -33.76171875 50.73828125 C-38.54978441 43.53098241 -37.59540566 34.70403058 -36.15625 26.58984375 C-33.33783574 15.64239208 -26.64747211 8.08911799 -17.0625 2.375 C-11.43181173 0.19950681 -5.96734464 0.06965772 0 0 Z " fill="#0A0A0A" transform="translate(984.3125,845.6875)"/>
<path d="M0 0 C0.495 0.495 0.495 0.495 1 1 C0.82928036 7.56168115 -0.49403704 13.96685943 -1.99609375 20.33203125 C-2.18969986 21.17166916 -2.38330597 22.01130707 -2.58277893 22.87638855 C-2.9891342 24.63239645 -3.39850058 26.38771011 -3.81079102 28.14233398 C-4.43964698 30.82164745 -5.05741859 33.50334564 -5.67382812 36.18554688 C-6.07226756 37.90119254 -6.47133402 39.61669274 -6.87109375 41.33203125 C-7.05449814 42.12793167 -7.23790253 42.92383209 -7.42686462 43.74385071 C-9.80443736 53.80443736 -9.80443736 53.80443736 -12 56 C-14.12008116 56.17813354 -16.24791612 56.26789228 -18.375 56.3125 C-20.11910156 56.36857422 -20.11910156 56.36857422 -21.8984375 56.42578125 C-25 56 -25 56 -26.52954102 54.37670898 C-28.2925418 51.52716347 -29.44291071 48.68212835 -30.62890625 45.546875 C-30.86407455 44.92782288 -31.09924286 44.30877075 -31.34153748 43.67095947 C-31.83620098 42.36433684 -32.32768389 41.05650616 -32.81616211 39.74755859 C-33.55604215 37.7672843 -34.30743903 35.79168225 -35.06054688 33.81640625 C-37.40762835 27.61199852 -39.60715968 21.49442704 -41 15 C-41.16604736 15.82089111 -41.33209473 16.64178223 -41.50317383 17.48754883 C-42.13208423 20.58759935 -42.7643211 23.68694919 -43.39868164 26.78588867 C-43.80279142 28.76495372 -44.20319934 30.74477351 -44.60351562 32.72460938 C-48.95762838 53.95762838 -48.95762838 53.95762838 -51 56 C-52.85287502 56.07226502 -54.70833878 56.0838122 -56.5625 56.0625 C-57.57441406 56.05347656 -58.58632812 56.04445313 -59.62890625 56.03515625 C-60.41136719 56.02355469 -61.19382812 56.01195312 -62 56 C-61.4027408 50.63585183 -60.52466043 45.45296065 -59.2578125 40.203125 C-59.08877411 39.48823914 -58.91973572 38.77335327 -58.74557495 38.0368042 C-58.20932388 35.7735786 -57.66719438 33.5118082 -57.125 31.25 C-56.76916015 29.75008799 -56.41368875 28.25008852 -56.05859375 26.75 C-55.20713794 23.16039232 -54.34691146 19.57299056 -53.48010254 15.98706055 C-53.02084238 14.08626298 -52.56454966 12.18474917 -52.10839844 10.28320312 C-51.84317383 9.19458984 -51.57794922 8.10597656 -51.3046875 6.984375 C-51.07507324 6.03788086 -50.84545898 5.09138672 -50.60888672 4.11621094 C-50 2 -50 2 -49 1 C-46.54059471 0.76562965 -44.15203028 0.62935816 -41.6875 0.5625 C-41.01009766 0.51673828 -40.33269531 0.47097656 -39.63476562 0.42382812 C-37.63671875 0.37890625 -37.63671875 0.37890625 -34 1 C-29.22535004 5.89380343 -27.57429149 13.15870953 -25.375 19.5 C-24.78332031 21.17255859 -24.78332031 21.17255859 -24.1796875 22.87890625 C-22.40667601 27.90443544 -20.67706887 32.94160781 -19 38 C-18.7733667 36.91992676 -18.5467334 35.83985352 -18.31323242 34.72705078 C-17.47010542 30.7250117 -16.61092719 26.72656214 -15.74682617 22.72900391 C-15.37491293 20.99752133 -15.00737452 19.26509309 -14.64428711 17.53173828 C-14.12196622 15.04198494 -13.58406481 12.55604375 -13.04296875 10.0703125 C-12.88346237 9.29317902 -12.72395599 8.51604553 -12.55961609 7.71536255 C-10.77179221 -0.33955429 -7.35998842 -0.35612847 0 0 Z " fill="#0B0B0B" transform="translate(2508,846)"/>
<path d="M0 0 C4.12589075 -0.07477218 8.25151308 -0.12889223 12.37792969 -0.16479492 C13.77839031 -0.17977914 15.17880483 -0.20017379 16.57910156 -0.22631836 C33.53509174 -0.53471904 33.53509174 -0.53471904 41 5.375 C44.52747558 10.16997528 43.70635712 16.39623351 43 22 C41.24850063 29.2344539 37.08506575 33.88268838 31 38 C24.56383827 41.47700691 19.0295469 43.13221484 11.703125 43.09765625 C10.49785156 43.09443359 9.29257813 43.09121094 8.05078125 43.08789062 C6.79652344 43.07951172 5.54226562 43.07113281 4.25 43.0625 C2.98027344 43.05798828 1.71054688 43.05347656 0.40234375 43.04882812 C-2.73181836 43.03704556 -5.86588541 43.02059416 -9 43 C-7.60716877 34.07701382 -5.85145394 25.26217812 -3.9375 16.4375 C-3.5343457 14.55321289 -3.5343457 14.55321289 -3.12304688 12.63085938 C-1.1352821 3.40584631 -1.1352821 3.40584631 0 0 Z " fill="#FEFDFC" transform="translate(2417,596)"/>
<path d="M0 0 C6.62779307 3.74559187 11.39864765 9.93580772 13.7265625 17.15234375 C14.74884662 26.78083375 14.11079084 36.3967454 8.078125 44.31640625 C4.2436527 48.38530043 0.7567285 50.72205112 -4.88671875 51.5234375 C-11.63244272 51.68939598 -16.27586153 50.87652935 -21.2734375 46.15234375 C-27.42362087 38.70089664 -29.76919178 31.89087358 -29.58984375 22.25390625 C-28.82127045 14.71999017 -25.65338173 8.407173 -20.2734375 3.15234375 C-14.17264964 -1.48425502 -7.35378249 -2.74187423 0 0 Z " fill="#06124C" transform="translate(1415.2734375,444.84765625)"/>
<path d="M0 0 C6.82105948 4.01770738 11.29335588 9.49675426 13.75 17.08984375 C14.89400083 26.44205053 14.6788012 35.37389195 8.75 43.08984375 C3.81829751 48.3093888 -0.05868398 51.18341436 -7.375 51.52734375 C-13.72452373 51.46847399 -17.60931571 49.30424389 -22.25 45.08984375 C-27.37808217 39.01711486 -29.89132563 31.33395727 -29.51953125 23.40234375 C-28.40373442 13.8291304 -24.59337034 7.43295435 -17.25 1.08984375 C-11.83377138 -1.63952734 -5.70266242 -2.30680615 0 0 Z " fill="#275290" transform="translate(1297.25,444.91015625)"/>
<path d="M0 0 C6.13083147 3.63653882 10.9235953 8.61296978 13.234375 15.4921875 C14.8057288 23.54235389 15.3868146 33.41821065 10.8671875 40.55859375 C10.4959375 41.06519531 10.1246875 41.57179688 9.7421875 42.09375 C8.8759375 43.455 8.8759375 43.455 7.9921875 44.84375 C3.43898975 49.39694775 -1.26478146 51.33147712 -7.6953125 51.71875 C-13.78076106 51.45710103 -17.94741239 49.360873 -22.2578125 45.09375 C-24.26800921 42.22272743 -25.82698089 39.28757057 -27.2578125 36.09375 C-27.5878125 35.43375 -27.9178125 34.77375 -28.2578125 34.09375 C-28.89463857 25.1573055 -29.46620028 15.82365885 -24.2578125 8.09375 C-17.61962686 0.89239698 -9.95095877 -3.99415646 0 0 Z " fill="#26528F" transform="translate(1524.2578125,444.90625)"/>
<path d="M0 0 C1.20849609 -0.00386719 1.20849609 -0.00386719 2.44140625 -0.0078125 C4.4375 0.125 4.4375 0.125 5.4375 1.125 C6.13447933 8.9115659 3.55179179 16.24384779 1.5703125 23.70117188 C-0.93231963 33.30550505 -0.93231963 33.30550505 -0.5625 43.125 C1.006926 45.04650568 2.21754587 46.01502293 4.4375 47.125 C10.04477817 47.49881854 13.60522538 47.30990827 18.4375 44.125 C22.46979757 39.98837704 23.53132028 36.07977024 24.7265625 30.61328125 C25.0106044 29.39912788 25.0106044 29.39912788 25.30038452 28.16044617 C25.9004242 25.58886306 26.48267808 23.01371042 27.0625 20.4375 C27.65160196 17.85116942 28.24456152 15.26590035 28.84603882 12.68241882 C29.21885238 11.07824692 29.5842 9.47231782 29.9413147 7.86457825 C31.21371536 2.34878464 31.21371536 2.34878464 33.4375 0.125 C35.8203125 -0.0703125 35.8203125 -0.0703125 38.5625 0 C39.47257812 0.01804687 40.38265625 0.03609375 41.3203125 0.0546875 C42.01898437 0.07789063 42.71765625 0.10109375 43.4375 0.125 C45.49420691 5.70711685 43.08522442 11.83335211 41.85180664 17.43945312 C41.3834193 19.58640832 40.94189885 21.73768857 40.50195312 23.890625 C38.48741151 33.37417598 36.03997186 44.26011989 28.6875 51.125 C21.22148434 55.71947118 15.06135915 57.49886614 6.3125 57.625 C5.5606543 57.64344971 4.80880859 57.66189941 4.03417969 57.6809082 C-2.25097771 57.61139431 -7.44106347 55.83897415 -12.22705078 51.67773438 C-15.88271977 47.42726733 -15.18043884 40.86850919 -14.85400391 35.60400391 C-13.76102697 26.30912303 -10.97503072 17.14825769 -8.5625 8.125 C-8.37397461 7.37460449 -8.18544922 6.62420898 -7.99121094 5.85107422 C-7.57670752 4.25835904 -7.07967712 2.68739641 -6.5625 1.125 C-4.1828388 -0.0648306 -2.64764265 -0.00849966 0 0 Z " fill="#0C0C0C" transform="translate(1467.5625,845.875)"/>
<path d="M0 0 C0.79470703 -0.02900391 1.58941406 -0.05800781 2.40820312 -0.08789062 C7.9804241 -0.14780698 10.85785227 0.77766683 15.1875 4.3125 C14.3125 10.0625 14.3125 10.0625 13.1875 12.3125 C10.42473823 11.78981534 7.8614124 11.20380413 5.1875 10.3125 C3.52381742 10.19483824 1.85529197 10.13740917 0.1875 10.125 C-0.67875 10.11082031 -1.545 10.09664062 -2.4375 10.08203125 C-5.07971537 10.14994062 -5.07971537 10.14994062 -7.8125 12.3125 C-8.71484908 15.67758475 -8.71484908 15.67758475 -7.8125 19.3125 C-5.51264568 21.55480041 -2.8262749 22.94538238 0 24.4375 C9.15946041 29.445205 9.15946041 29.445205 11.1875 34.3125 C11.88328169 40.47513783 11.03923398 44.42008013 7.1875 49.3125 C0.50181846 55.99818154 -5.71877058 57.56484385 -14.875 57.6875 C-15.54772949 57.70143799 -16.22045898 57.71537598 -16.91357422 57.72973633 C-22.67945144 57.67544768 -27.64706038 56.47793962 -31.8125 52.3125 C-31.4375 48.6875 -31.4375 48.6875 -30.8125 45.3125 C-28.6875 44.625 -28.6875 44.625 -25.8125 44.3125 C-24.905 44.786875 -23.9975 45.26125 -23.0625 45.75 C-17.6678385 48.34358726 -12.94028314 47.99643029 -7.3125 46.1875 C-4.53091084 44.49478892 -4.53091084 44.49478892 -3.9375 41.25 C-3.86750544 39.6051279 -3.8125 37.95886068 -3.8125 36.3125 C-4.52148438 36.05082031 -5.23046875 35.78914062 -5.9609375 35.51953125 C-8.98331869 34.24019455 -11.65033269 32.73142211 -14.4375 31 C-15.37851563 30.42636719 -16.31953125 29.85273437 -17.2890625 29.26171875 C-20.72881694 26.60469481 -22.488323 24.15534405 -23.24609375 19.84765625 C-23.25509183 14.15187229 -22.79407038 10.70243658 -18.8125 6.3125 C-12.65486648 1.16247924 -7.88758536 0.09457536 0 0 Z " fill="#0C0C0C" transform="translate(2737.8125,845.6875)"/>
<path d="M0 0 C1.17755859 -0.01740234 1.17755859 -0.01740234 2.37890625 -0.03515625 C6.95674204 -0.01199688 10.25552234 0.25723212 13.875 3.375 C14.3125 6.9375 14.3125 6.9375 13.875 10.375 C13.215 11.035 12.555 11.695 11.875 12.375 C9.42401444 11.97967975 7.23595721 11.16198574 4.875 10.375 C3.04537564 10.23171616 1.20998763 10.15459657 -0.625 10.125 C-2.06359375 10.08632813 -2.06359375 10.08632813 -3.53125 10.046875 C-6.1517772 10.16051824 -6.1517772 10.16051824 -7.9375 11.73828125 C-9.30081635 13.38051989 -9.30081635 13.38051989 -9.625 15.8125 C-9.34154533 18.50335955 -9.34154533 18.50335955 -7.25 20.3125 C-4.56264293 22.08615567 -1.84714218 23.70012225 0.9375 25.3125 C7.94941427 29.52382854 7.94941427 29.52382854 9.875 33.375 C10.71581413 39.26069889 10.44987224 44.45955067 6.875 49.375 C0.10890331 55.7144059 -6.80893246 57.76774414 -16.0625 57.75 C-16.76181641 57.75128906 -17.46113281 57.75257813 -18.18164062 57.75390625 C-23.86127123 57.6374553 -27.44771842 56.49318772 -32.125 53.375 C-31.795 50.735 -31.465 48.095 -31.125 45.375 C-29 44.6875 -29 44.6875 -26.125 44.375 C-25.238125 44.849375 -24.35125 45.32375 -23.4375 45.8125 C-19.00440801 47.90358113 -14.96130432 47.98951392 -10.125 47.375 C-6.82765551 46.11633624 -6.16938844 45.44158267 -4.125 42.375 C-3.81884054 39.88900388 -3.81884054 39.88900388 -5.125 37.375 C-6.94892312 35.95840462 -8.85198304 34.84325566 -10.85546875 33.6953125 C-13.17322778 32.34694322 -15.33217862 30.88981794 -17.5 29.3125 C-18.14710938 28.84714844 -18.79421875 28.38179687 -19.4609375 27.90234375 C-22.82859134 24.81137508 -23.48976293 21.5900306 -23.6875 17.125 C-23.58528121 11.66359616 -22.00957419 8.95894336 -18.33984375 5.03125 C-12.42661242 0.60936273 -7.17156325 -0.10703826 0 0 Z " fill="#0A0A0A" transform="translate(731.125,845.625)"/>
<path d="M0 0 C1.88209568 -0.00597678 3.76440928 0.01588915 5.64599609 0.06005859 C7.13430435 0.06711319 7.13430435 0.06711319 8.65267944 0.0743103 C11.8256324 0.09568823 14.99692545 0.15234126 18.16943359 0.20849609 C20.31525128 0.22499741 22.46108668 0.23934697 24.60693359 0.25146484 C28.52072086 0.28547835 32.43434323 0.32008976 36.34765625 0.390625 C37.13580719 0.40348541 37.92395813 0.41634583 38.73599243 0.42959595 C40.54443359 0.58349609 40.54443359 0.58349609 41.54443359 1.58349609 C40.84675918 7.97884493 40.84675918 7.97884493 39.54443359 10.58349609 C33.93443359 10.58349609 28.32443359 10.58349609 22.54443359 10.58349609 C22.28662109 12.24380859 22.02880859 13.90412109 21.76318359 15.61474609 C20.6140157 22.50166075 19.10984799 29.29224222 17.51269531 36.08642578 C17.03882474 38.10741705 16.57458197 40.13047204 16.11083984 42.15380859 C15.80802606 43.45342108 15.50466123 44.75290533 15.20068359 46.05224609 C14.930625 47.21175781 14.66056641 48.37126953 14.38232422 49.56591797 C13.54443359 52.58349609 13.54443359 52.58349609 11.54443359 56.58349609 C7.58443359 56.58349609 3.62443359 56.58349609 -0.45556641 56.58349609 C0.14534996 48.3772319 2.0643985 40.51878478 3.98291016 32.54296875 C4.54781577 30.19443508 5.10537631 27.84425091 5.66162109 25.49365234 C6.01797376 23.99485494 6.37473002 22.49615343 6.73193359 20.99755859 C6.89862549 20.29756744 7.06531738 19.59757629 7.23706055 18.87637329 C7.91353497 16.06706743 8.63006448 13.32660344 9.54443359 10.58349609 C4.26443359 10.58349609 -1.01556641 10.58349609 -6.45556641 10.58349609 C-7.45556641 5.58349609 -7.45556641 5.58349609 -6.64941406 2.80371094 C-4.10803405 0.23178685 -3.47950241 0.21249865 0 0 Z " fill="#0F0F0F" transform="translate(466.45556640625,845.41650390625)"/>
<path d="M0 0 C0.90070724 0.00030212 1.80141449 0.00060425 2.72941589 0.00091553 C3.69825211 0.02156067 4.66708832 0.04220581 5.6652832 0.06347656 C7.15714897 0.07196625 7.15714897 0.07196625 8.67915344 0.08062744 C11.85861156 0.10303436 15.03694645 0.15323951 18.21606445 0.20410156 C20.37034506 0.22416094 22.52464332 0.24241269 24.67895508 0.25878906 C29.96254203 0.30291304 35.24547301 0.36986778 40.52856445 0.45410156 C40.77856445 7.07910156 40.77856445 7.07910156 38.52856445 10.45410156 C35.57792297 10.67495796 32.84488215 10.73471146 29.90356445 10.64160156 C29.10176758 10.62806641 28.2999707 10.61453125 27.47387695 10.60058594 C25.49182067 10.56519208 23.51010894 10.5113839 21.52856445 10.45410156 C21.44606445 11.7315625 21.36356445 13.00902344 21.27856445 14.32519531 C20.53829808 21.71612944 18.77488837 28.88607549 17.09008789 36.10717773 C16.52292593 38.54079571 15.96650933 40.9766987 15.41137695 43.41308594 C15.055228 44.95945326 14.69847957 46.50568266 14.34106445 48.05175781 C14.17437256 48.78080826 14.00768066 49.5098587 13.8359375 50.26100159 C12.64431917 55.33834685 12.64431917 55.33834685 11.52856445 56.45410156 C9.50892247 56.52654209 7.48689322 56.53787344 5.46606445 56.51660156 C3.80897461 56.50306641 3.80897461 56.50306641 2.1184082 56.48925781 C1.26375977 56.47765625 0.40911133 56.46605469 -0.47143555 56.45410156 C0.0056477 48.33763458 1.46179119 40.75969587 3.46606445 32.89160156 C5.33096201 25.4365488 7.08303845 18.0029596 8.52856445 10.45410156 C3.24856445 10.45410156 -2.03143555 10.45410156 -7.47143555 10.45410156 C-7.47143555 4.45410156 -7.47143555 4.45410156 -6.25090027 2.10748291 C-4.01903306 0.0337539 -3.01355225 -0.03376529 0 0 Z " fill="#0E0E0E" transform="translate(1723.471435546875,845.5458984375)"/>
<path d="M0 0 C2.5625 1.6875 2.5625 1.6875 4.5625 4.6875 C5.72493345 13.76051951 4.02711153 22.51943893 -1.1875 30.0625 C-4.65845387 34.27540224 -8.07452081 37.17599792 -13.671875 38.02734375 C-18.58946462 38.23361848 -22.32622391 37.59547577 -26.4375 34.6875 C-29.50651008 28.46481749 -29.38561767 22.12442654 -27.5625 15.515625 C-24.73401845 8.03503563 -21.37008589 3.55574411 -14.49609375 -0.44140625 C-9.71300406 -2.4653702 -4.73364051 -1.80739001 0 0 Z " fill="#FAFAFA" transform="translate(2226.4375,856.3125)"/>
<path d="M0 0 C2.57519542 2.17282113 3.88756926 3.84034746 4.3359375 7.21875 C4.46622234 17.12039781 2.60770656 25.98603208 -4.44140625 33.31640625 C-8.932744 37.26743269 -13.06852734 38.19168891 -18.88671875 37.9765625 C-22.78746161 37.44300433 -25.055797 35.75545776 -27.609375 32.8671875 C-30.43711299 28.4349465 -29.4316535 23.0759827 -28.53125 18.09375 C-26.63429674 10.77693028 -23.12390205 4.48687733 -16.75 0.1875 C-11.425058 -2.474971 -5.37801901 -2.35288332 0 0 Z " fill="#FAFAFA" transform="translate(990,856.3125)"/>
<path d="M0 0 C1.19109375 -0.00386719 1.19109375 -0.00386719 2.40625 -0.0078125 C4.5 0.125 4.5 0.125 6.5 1.125 C5.11266718 9.98148788 3.3889686 18.73780408 1.5 27.5 C1.23960938 28.73105469 0.97921875 29.96210937 0.7109375 31.23046875 C0.32808594 33.01517578 0.32808594 33.01517578 -0.0625 34.8359375 C-0.29066406 35.90118652 -0.51882813 36.96643555 -0.75390625 38.06396484 C-1.50126856 41.13020458 -2.50198314 44.13094942 -3.5 47.125 C3.43 47.125 10.36 47.125 17.5 47.125 C16.5 54.125 16.5 54.125 15.5 56.125 C4.61 56.125 -6.28 56.125 -17.5 56.125 C-16.37476621 42.62219451 -16.37476621 42.62219451 -14.9765625 36.59375 C-14.82972015 35.95111206 -14.68287781 35.30847412 -14.53158569 34.6463623 C-14.07045941 32.63735878 -13.59792049 30.63125548 -13.125 28.625 C-12.81697032 27.28793022 -12.50967585 25.95069085 -12.203125 24.61328125 C-11.32096286 20.77932768 -10.41036132 16.95235701 -9.5 13.125 C-9.22768555 11.93519531 -8.95537109 10.74539063 -8.67480469 9.51953125 C-8.41860352 8.43027344 -8.16240234 7.34101562 -7.8984375 6.21875 C-7.67591309 5.25646484 -7.45338867 4.29417969 -7.22412109 3.30273438 C-6.98516113 2.58408203 -6.74620117 1.86542969 -6.5 1.125 C-4.13386544 -0.05806728 -2.63219264 -0.00854608 0 0 Z " fill="#0A0A0A" transform="translate(1227.5,845.875)"/>
<path d="M0 0 C0.90492188 0.02320313 1.80984375 0.04640625 2.7421875 0.0703125 C3.65226562 0.08835937 4.56234375 0.10640625 5.5 0.125 C6.19867188 0.14820313 6.89734375 0.17140625 7.6171875 0.1953125 C8.67459951 4.19145254 8.47502615 7.01774633 7.578125 11.03515625 C7.2056665 12.73889404 7.2056665 12.73889404 6.82568359 14.47705078 C6.55062988 15.68345215 6.27557617 16.88985352 5.9921875 18.1328125 C5.71584473 19.37015137 5.43950195 20.60749023 5.15478516 21.88232422 C4.58715023 24.42054243 4.01601175 26.95797962 3.44140625 29.49462891 C2.67302174 32.94462075 1.94850529 36.40012989 1.2421875 39.86328125 C0.82562927 41.84898108 0.40896876 43.83465947 -0.0078125 45.8203125 C-0.27972412 47.20464478 -0.27972412 47.20464478 -0.55712891 48.61694336 C-0.73937012 49.4600708 -0.92161133 50.30319824 -1.109375 51.171875 C-1.25971191 51.90486816 -1.41004883 52.63786133 -1.56494141 53.39306641 C-2.3828125 55.1953125 -2.3828125 55.1953125 -4.23583984 56.43505859 C-7.33782133 57.53348597 -10.12319474 57.37640238 -13.3828125 57.1953125 C-14.0428125 56.8653125 -14.7028125 56.5353125 -15.3828125 56.1953125 C-14.88566372 48.10270043 -13.25374317 40.31549851 -11.48144531 32.42822266 C-11.01050403 30.33229118 -10.5474726 28.23473949 -10.0859375 26.13671875 C-9.20538399 22.1513953 -8.29863548 18.17268798 -7.3828125 14.1953125 C-7.11049805 13.00389648 -6.83818359 11.81248047 -6.55761719 10.58496094 C-6.17331543 8.96509277 -6.17331543 8.96509277 -5.78125 7.3125 C-5.55872559 6.36745605 -5.33620117 5.42241211 -5.10693359 4.44873047 C-4.1116153 1.35136436 -3.30505434 0.27090609 0 0 Z " fill="#0D0D0D" transform="translate(246.3828125,845.8046875)"/>
<path d="M0 0 C0.91007812 0.00902344 1.82015625 0.01804687 2.7578125 0.02734375 C3.80582031 0.04474609 3.80582031 0.04474609 4.875 0.0625 C6.41426577 4.03551248 5.32724571 7.53396436 4.36328125 11.51171875 C4.19378464 12.24260208 4.02428802 12.97348541 3.84965515 13.72651672 C3.30412182 16.06976708 2.74604253 18.40982031 2.1875 20.75 C1.83054754 22.27389374 1.4744201 23.79798098 1.11914062 25.32226562 C0.2302958 29.12643607 -0.66905653 32.92802978 -1.57171631 36.72894287 C-2.51807722 40.72036225 -3.45590067 44.71378831 -4.39453125 48.70703125 C-4.73019521 50.13387736 -5.06588562 51.56071725 -5.40161133 52.98754883 C-5.64032959 54.00228271 -5.87904785 55.0170166 -6.125 56.0625 C-10.415 56.0625 -14.705 56.0625 -19.125 56.0625 C-17.70161016 45.7799911 -15.55472985 35.83184386 -13.125 25.75 C-12.76516309 24.23904222 -12.4057859 22.72797489 -12.046875 21.21679688 C-11.0817838 17.16315349 -10.10963492 13.1114491 -9.125 9.0625 C-8.88185059 7.96030624 -8.88185059 7.96030624 -8.63378906 6.83584595 C-8.19137468 4.89659084 -7.66436333 2.97705689 -7.125 1.0625 C-4.60024538 -0.19987731 -2.81299534 -0.03606404 0 0 Z " fill="#0C0C0C" transform="translate(1977.125,845.9375)"/>
<path d="M0 0 C16.73603245 -1.68552107 16.73603245 -1.68552107 22.1953125 2.37890625 C24.39151259 5.15858524 26.23605145 7.93266387 28 11 C28.66 11.66 29.32 12.32 30 13 C26 17 22 21 18 25 C14.311122 23.770374 13.78898278 22.61082204 11.6796875 19.4140625 C11.06222656 18.48335938 10.44476562 17.55265625 9.80859375 16.59375 C9.17050781 15.6140625 8.53242187 14.634375 7.875 13.625 C7.22917969 12.65304687 6.58335938 11.68109375 5.91796875 10.6796875 C1.14512244 3.43536731 1.14512244 3.43536731 0 0 Z " fill="#285390" transform="translate(1436,443)"/>
<path d="M0 0 C1.03125 0.02255859 2.0625 0.04511719 3.125 0.06835938 C5.66814065 0.12722837 8.20833113 0.20939935 10.75 0.3125 C8.30024921 4.67404954 5.36346356 8.48110592 2.25 12.375 C1.28087819 13.59475676 0.31211826 14.81480115 -0.65625 16.03515625 C-1.10613281 16.60121582 -1.55601563 17.16727539 -2.01953125 17.75048828 C-3.46163311 19.58115648 -4.86600609 21.43756231 -6.25 23.3125 C-7.52160666 21.72978767 -8.79225285 20.14630365 -10.0625 18.5625 C-11.12404297 17.23992187 -11.12404297 17.23992187 -12.20703125 15.890625 C-13.92505002 13.72257071 -15.60373976 11.53521099 -17.25 9.3125 C-16.64456452 7.95027017 -15.95885894 6.62388904 -15.25 5.3125 C-14.79625 4.44625 -14.3425 3.58 -13.875 2.6875 C-9.71804854 -1.07355132 -5.391026 -0.22234562 0 0 Z " fill="#27528F" transform="translate(1369.25,442.6875)"/>
</svg>
